<?xml version="1.0" encoding="utf-8" standalone="no"?>
<!DOCTYPE svg PUBLIC "-//W3C//DTD SVG 1.1//EN"
  "http://www.w3.org/Graphics/SVG/1.1/DTD/svg11.dtd">
<!-- Created with matplotlib (https://matplotlib.org/) -->
<svg height="345.6pt" version="1.1" viewBox="0 0 460.8 345.6" width="460.8pt" xmlns="http://www.w3.org/2000/svg" xmlns:xlink="http://www.w3.org/1999/xlink">
 <defs>
  <style type="text/css">
*{stroke-linecap:butt;stroke-linejoin:round;}
  </style>
 </defs>
 <g id="figure_1">
  <g id="patch_1">
   <path d="M 0 345.6 
L 460.8 345.6 
L 460.8 0 
L 0 0 
z
" style="fill:#ffffff;"/>
  </g>
  <g id="axes_1">
   <g id="patch_2">
    <path d="M 369.216 174.528 
C 369.216 157.055246 365.774248 139.752393 359.087715 123.609673 
C 352.401182 107.466954 342.599903 92.798303 330.2448 80.4432 
C 317.889697 68.088097 303.221046 58.286818 287.078327 51.600285 
C 270.935607 44.913752 253.632754 41.472 236.16 41.472 
C 218.687246 41.472 201.384393 44.913752 185.241673 51.600285 
C 169.098954 58.286818 154.430303 68.088097 142.0752 80.4432 
C 129.720097 92.798303 119.918818 107.466954 113.232285 123.609673 
C 106.545752 139.752393 103.104 157.055246 103.104 174.528 
C 103.104 192.000754 106.545752 209.303607 113.232285 225.446327 
C 119.918818 241.589046 129.720097 256.257697 142.0752 268.6128 
C 154.430303 280.967903 169.098954 290.769182 185.241673 297.455715 
C 201.384393 304.142248 218.687246 307.584 236.16 307.584 
C 253.632754 307.584 270.935607 304.142248 287.078327 297.455715 
C 303.221046 290.769182 317.889697 280.967903 330.2448 268.6128 
C 342.599903 256.257697 352.401182 241.589046 359.087715 225.446327 
C 365.774248 209.303607 369.216 192.000754 369.216 174.528 
M 236.16 174.528 
C 236.16 174.528 236.16 174.528 236.16 174.528 
C 236.16 174.528 236.16 174.528 236.16 174.528 
C 236.16 174.528 236.16 174.528 236.16 174.528 
C 236.16 174.528 236.16 174.528 236.16 174.528 
C 236.16 174.528 236.16 174.528 236.16 174.528 
C 236.16 174.528 236.16 174.528 236.16 174.528 
C 236.16 174.528 236.16 174.528 236.16 174.528 
C 236.16 174.528 236.16 174.528 236.16 174.528 
C 236.16 174.528 236.16 174.528 236.16 174.528 
C 236.16 174.528 236.16 174.528 236.16 174.528 
C 236.16 174.528 236.16 174.528 236.16 174.528 
C 236.16 174.528 236.16 174.528 236.16 174.528 
C 236.16 174.528 236.16 174.528 236.16 174.528 
C 236.16 174.528 236.16 174.528 236.16 174.528 
C 236.16 174.528 236.16 174.528 236.16 174.528 
C 236.16 174.528 236.16 174.528 236.16 174.528 
M 369.216 174.528 
z
" style="fill:#ffffff;"/>
   </g>
   <g id="matplotlib.axis_1">
    <g id="xtick_1">
     <g id="line2d_1">
      <path clip-path="url(#pbb8fbf5df2)" d="M 236.16 174.528 
L 369.216 174.528 
" style="fill:none;stroke:#b0b0b0;stroke-linecap:square;stroke-width:0.8;"/>
     </g>
     <g id="text_1">
      <!-- 0° -->
      <defs>
       <path d="M 31.78125 66.40625 
Q 24.171875 66.40625 20.328125 58.90625 
Q 16.5 51.421875 16.5 36.375 
Q 16.5 21.390625 20.328125 13.890625 
Q 24.171875 6.390625 31.78125 6.390625 
Q 39.453125 6.390625 43.28125 13.890625 
Q 47.125 21.390625 47.125 36.375 
Q 47.125 51.421875 43.28125 58.90625 
Q 39.453125 66.40625 31.78125 66.40625 
z
M 31.78125 74.21875 
Q 44.046875 74.21875 50.515625 64.515625 
Q 56.984375 54.828125 56.984375 36.375 
Q 56.984375 17.96875 50.515625 8.265625 
Q 44.046875 -1.421875 31.78125 -1.421875 
Q 19.53125 -1.421875 13.0625 8.265625 
Q 6.59375 17.96875 6.59375 36.375 
Q 6.59375 54.828125 13.0625 64.515625 
Q 19.53125 74.21875 31.78125 74.21875 
z
" id="DejaVuSans-48"/>
       <path d="M 25 67.921875 
Q 21.09375 67.921875 18.40625 65.203125 
Q 15.71875 62.5 15.71875 58.59375 
Q 15.71875 54.734375 18.40625 52.078125 
Q 21.09375 49.421875 25 49.421875 
Q 28.90625 49.421875 31.59375 52.078125 
Q 34.28125 54.734375 34.28125 58.59375 
Q 34.28125 62.453125 31.5625 65.1875 
Q 28.859375 67.921875 25 67.921875 
z
M 25 74.21875 
Q 28.125 74.21875 31 73.015625 
Q 33.890625 71.828125 35.984375 69.578125 
Q 38.234375 67.390625 39.359375 64.59375 
Q 40.484375 61.8125 40.484375 58.59375 
Q 40.484375 52.15625 35.96875 47.6875 
Q 31.453125 43.21875 24.90625 43.21875 
Q 18.3125 43.21875 13.90625 47.609375 
Q 9.515625 52 9.515625 58.59375 
Q 9.515625 65.140625 14 69.671875 
Q 18.5 74.21875 25 74.21875 
z
" id="DejaVuSans-176"/>
      </defs>
      <g transform="translate(377.53475 177.287375)scale(0.1 -0.1)">
       <use xlink:href="#DejaVuSans-48"/>
       <use x="63.623047" xlink:href="#DejaVuSans-176"/>
      </g>
     </g>
    </g>
    <g id="xtick_2">
     <g id="line2d_2">
      <path clip-path="url(#pbb8fbf5df2)" d="M 236.16 174.528 
L 330.2448 80.4432 
" style="fill:none;stroke:#b0b0b0;stroke-linecap:square;stroke-width:0.8;"/>
     </g>
     <g id="text_2">
      <!-- 45° -->
      <defs>
       <path d="M 37.796875 64.3125 
L 12.890625 25.390625 
L 37.796875 25.390625 
z
M 35.203125 72.90625 
L 47.609375 72.90625 
L 47.609375 25.390625 
L 58.015625 25.390625 
L 58.015625 17.1875 
L 47.609375 17.1875 
L 47.609375 0 
L 37.796875 0 
L 37.796875 17.1875 
L 4.890625 17.1875 
L 4.890625 26.703125 
z
" id="DejaVuSans-52"/>
       <path d="M 10.796875 72.90625 
L 49.515625 72.90625 
L 49.515625 64.59375 
L 19.828125 64.59375 
L 19.828125 46.734375 
Q 21.96875 47.46875 24.109375 47.828125 
Q 26.265625 48.1875 28.421875 48.1875 
Q 40.625 48.1875 47.75 41.5 
Q 54.890625 34.8125 54.890625 23.390625 
Q 54.890625 11.625 47.5625 5.09375 
Q 40.234375 -1.421875 26.90625 -1.421875 
Q 22.3125 -1.421875 17.546875 -0.640625 
Q 12.796875 0.140625 7.71875 1.703125 
L 7.71875 11.625 
Q 12.109375 9.234375 16.796875 8.0625 
Q 21.484375 6.890625 26.703125 6.890625 
Q 35.15625 6.890625 40.078125 11.328125 
Q 45.015625 15.765625 45.015625 23.390625 
Q 45.015625 31 40.078125 35.4375 
Q 35.15625 39.890625 26.703125 39.890625 
Q 22.75 39.890625 18.8125 39.015625 
Q 14.890625 38.140625 10.796875 36.28125 
z
" id="DejaVuSans-53"/>
      </defs>
      <g transform="translate(331.281795 73.30308)scale(0.1 -0.1)">
       <use xlink:href="#DejaVuSans-52"/>
       <use x="63.623047" xlink:href="#DejaVuSans-53"/>
       <use x="127.246094" xlink:href="#DejaVuSans-176"/>
      </g>
     </g>
    </g>
    <g id="xtick_3">
     <g id="line2d_3">
      <path clip-path="url(#pbb8fbf5df2)" d="M 236.16 174.528 
L 236.16 41.472 
" style="fill:none;stroke:#b0b0b0;stroke-linecap:square;stroke-width:0.8;"/>
     </g>
     <g id="text_3">
      <!-- 90° -->
      <defs>
       <path d="M 10.984375 1.515625 
L 10.984375 10.5 
Q 14.703125 8.734375 18.5 7.8125 
Q 22.3125 6.890625 25.984375 6.890625 
Q 35.75 6.890625 40.890625 13.453125 
Q 46.046875 20.015625 46.78125 33.40625 
Q 43.953125 29.203125 39.59375 26.953125 
Q 35.25 24.703125 29.984375 24.703125 
Q 19.046875 24.703125 12.671875 31.3125 
Q 6.296875 37.9375 6.296875 49.421875 
Q 6.296875 60.640625 12.9375 67.421875 
Q 19.578125 74.21875 30.609375 74.21875 
Q 43.265625 74.21875 49.921875 64.515625 
Q 56.59375 54.828125 56.59375 36.375 
Q 56.59375 19.140625 48.40625 8.859375 
Q 40.234375 -1.421875 26.421875 -1.421875 
Q 22.703125 -1.421875 18.890625 -0.6875 
Q 15.09375 0.046875 10.984375 1.515625 
z
M 30.609375 32.421875 
Q 37.25 32.421875 41.125 36.953125 
Q 45.015625 41.5 45.015625 49.421875 
Q 45.015625 57.28125 41.125 61.84375 
Q 37.25 66.40625 30.609375 66.40625 
Q 23.96875 66.40625 20.09375 61.84375 
Q 16.21875 57.28125 16.21875 49.421875 
Q 16.21875 41.5 20.09375 36.953125 
Q 23.96875 32.421875 30.609375 32.421875 
z
" id="DejaVuSans-57"/>
      </defs>
      <g transform="translate(227.2975 30.231375)scale(0.1 -0.1)">
       <use xlink:href="#DejaVuSans-57"/>
       <use x="63.623047" xlink:href="#DejaVuSans-48"/>
       <use x="127.246094" xlink:href="#DejaVuSans-176"/>
      </g>
     </g>
    </g>
    <g id="xtick_4">
     <g id="line2d_4">
      <path clip-path="url(#pbb8fbf5df2)" d="M 236.16 174.528 
L 142.0752 80.4432 
" style="fill:none;stroke:#b0b0b0;stroke-linecap:square;stroke-width:0.8;"/>
     </g>
     <g id="text_4">
      <!-- 135° -->
      <defs>
       <path d="M 12.40625 8.296875 
L 28.515625 8.296875 
L 28.515625 63.921875 
L 10.984375 60.40625 
L 10.984375 69.390625 
L 28.421875 72.90625 
L 38.28125 72.90625 
L 38.28125 8.296875 
L 54.390625 8.296875 
L 54.390625 0 
L 12.40625 0 
z
" id="DejaVuSans-49"/>
       <path d="M 40.578125 39.3125 
Q 47.65625 37.796875 51.625 33 
Q 55.609375 28.21875 55.609375 21.1875 
Q 55.609375 10.40625 48.1875 4.484375 
Q 40.765625 -1.421875 27.09375 -1.421875 
Q 22.515625 -1.421875 17.65625 -0.515625 
Q 12.796875 0.390625 7.625 2.203125 
L 7.625 11.71875 
Q 11.71875 9.328125 16.59375 8.109375 
Q 21.484375 6.890625 26.8125 6.890625 
Q 36.078125 6.890625 40.9375 10.546875 
Q 45.796875 14.203125 45.796875 21.1875 
Q 45.796875 27.640625 41.28125 31.265625 
Q 36.765625 34.90625 28.71875 34.90625 
L 20.21875 34.90625 
L 20.21875 43.015625 
L 29.109375 43.015625 
Q 36.375 43.015625 40.234375 45.921875 
Q 44.09375 48.828125 44.09375 54.296875 
Q 44.09375 59.90625 40.109375 62.90625 
Q 36.140625 65.921875 28.71875 65.921875 
Q 24.65625 65.921875 20.015625 65.03125 
Q 15.375 64.15625 9.8125 62.3125 
L 9.8125 71.09375 
Q 15.4375 72.65625 20.34375 73.4375 
Q 25.25 74.21875 29.59375 74.21875 
Q 40.828125 74.21875 47.359375 69.109375 
Q 53.90625 64.015625 53.90625 55.328125 
Q 53.90625 49.265625 50.4375 45.09375 
Q 46.96875 40.921875 40.578125 39.3125 
z
" id="DejaVuSans-51"/>
      </defs>
      <g transform="translate(120.131955 73.30308)scale(0.1 -0.1)">
       <use xlink:href="#DejaVuSans-49"/>
       <use x="63.623047" xlink:href="#DejaVuSans-51"/>
       <use x="127.246094" xlink:href="#DejaVuSans-53"/>
       <use x="190.869141" xlink:href="#DejaVuSans-176"/>
      </g>
     </g>
    </g>
    <g id="xtick_5">
     <g id="line2d_5">
      <path clip-path="url(#pbb8fbf5df2)" d="M 236.16 174.528 
L 103.104 174.528 
" style="fill:none;stroke:#b0b0b0;stroke-linecap:square;stroke-width:0.8;"/>
     </g>
     <g id="text_5">
      <!-- 180° -->
      <defs>
       <path d="M 31.78125 34.625 
Q 24.75 34.625 20.71875 30.859375 
Q 16.703125 27.09375 16.703125 20.515625 
Q 16.703125 13.921875 20.71875 10.15625 
Q 24.75 6.390625 31.78125 6.390625 
Q 38.8125 6.390625 42.859375 10.171875 
Q 46.921875 13.96875 46.921875 20.515625 
Q 46.921875 27.09375 42.890625 30.859375 
Q 38.875 34.625 31.78125 34.625 
z
M 21.921875 38.8125 
Q 15.578125 40.375 12.03125 44.71875 
Q 8.5 49.078125 8.5 55.328125 
Q 8.5 64.0625 14.71875 69.140625 
Q 20.953125 74.21875 31.78125 74.21875 
Q 42.671875 74.21875 48.875 69.140625 
Q 55.078125 64.0625 55.078125 55.328125 
Q 55.078125 49.078125 51.53125 44.71875 
Q 48 40.375 41.703125 38.8125 
Q 48.828125 37.15625 52.796875 32.3125 
Q 56.78125 27.484375 56.78125 20.515625 
Q 56.78125 9.90625 50.3125 4.234375 
Q 43.84375 -1.421875 31.78125 -1.421875 
Q 19.734375 -1.421875 13.25 4.234375 
Q 6.78125 9.90625 6.78125 20.515625 
Q 6.78125 27.484375 10.78125 32.3125 
Q 14.796875 37.15625 21.921875 38.8125 
z
M 18.3125 54.390625 
Q 18.3125 48.734375 21.84375 45.5625 
Q 25.390625 42.390625 31.78125 42.390625 
Q 38.140625 42.390625 41.71875 45.5625 
Q 45.3125 48.734375 45.3125 54.390625 
Q 45.3125 60.0625 41.71875 63.234375 
Q 38.140625 66.40625 31.78125 66.40625 
Q 25.390625 66.40625 21.84375 63.234375 
Q 18.3125 60.0625 18.3125 54.390625 
z
" id="DejaVuSans-56"/>
      </defs>
      <g transform="translate(77.06025 177.287375)scale(0.1 -0.1)">
       <use xlink:href="#DejaVuSans-49"/>
       <use x="63.623047" xlink:href="#DejaVuSans-56"/>
       <use x="127.246094" xlink:href="#DejaVuSans-48"/>
       <use x="190.869141" xlink:href="#DejaVuSans-176"/>
      </g>
     </g>
    </g>
    <g id="xtick_6">
     <g id="line2d_6">
      <path clip-path="url(#pbb8fbf5df2)" d="M 236.16 174.528 
L 142.0752 268.6128 
" style="fill:none;stroke:#b0b0b0;stroke-linecap:square;stroke-width:0.8;"/>
     </g>
     <g id="text_6">
      <!-- 225° -->
      <defs>
       <path d="M 19.1875 8.296875 
L 53.609375 8.296875 
L 53.609375 0 
L 7.328125 0 
L 7.328125 8.296875 
Q 12.9375 14.109375 22.625 23.890625 
Q 32.328125 33.6875 34.8125 36.53125 
Q 39.546875 41.84375 41.421875 45.53125 
Q 43.3125 49.21875 43.3125 52.78125 
Q 43.3125 58.59375 39.234375 62.25 
Q 35.15625 65.921875 28.609375 65.921875 
Q 23.96875 65.921875 18.8125 64.3125 
Q 13.671875 62.703125 7.8125 59.421875 
L 7.8125 69.390625 
Q 13.765625 71.78125 18.9375 73 
Q 24.125 74.21875 28.421875 74.21875 
Q 39.75 74.21875 46.484375 68.546875 
Q 53.21875 62.890625 53.21875 53.421875 
Q 53.21875 48.921875 51.53125 44.890625 
Q 49.859375 40.875 45.40625 35.40625 
Q 44.1875 33.984375 37.640625 27.21875 
Q 31.109375 20.453125 19.1875 8.296875 
z
" id="DejaVuSans-50"/>
      </defs>
      <g transform="translate(120.131955 281.27167)scale(0.1 -0.1)">
       <use xlink:href="#DejaVuSans-50"/>
       <use x="63.623047" xlink:href="#DejaVuSans-50"/>
       <use x="127.246094" xlink:href="#DejaVuSans-53"/>
       <use x="190.869141" xlink:href="#DejaVuSans-176"/>
      </g>
     </g>
    </g>
    <g id="xtick_7">
     <g id="line2d_7">
      <path clip-path="url(#pbb8fbf5df2)" d="M 236.16 174.528 
L 236.16 307.584 
" style="fill:none;stroke:#b0b0b0;stroke-linecap:square;stroke-width:0.8;"/>
     </g>
     <g id="text_7">
      <!-- 270° -->
      <defs>
       <path d="M 8.203125 72.90625 
L 55.078125 72.90625 
L 55.078125 68.703125 
L 28.609375 0 
L 18.3125 0 
L 43.21875 64.59375 
L 8.203125 64.59375 
z
" id="DejaVuSans-55"/>
      </defs>
      <g transform="translate(224.11625 324.343375)scale(0.1 -0.1)">
       <use xlink:href="#DejaVuSans-50"/>
       <use x="63.623047" xlink:href="#DejaVuSans-55"/>
       <use x="127.246094" xlink:href="#DejaVuSans-48"/>
       <use x="190.869141" xlink:href="#DejaVuSans-176"/>
      </g>
     </g>
    </g>
    <g id="xtick_8">
     <g id="line2d_8">
      <path clip-path="url(#pbb8fbf5df2)" d="M 236.16 174.528 
L 330.2448 268.6128 
" style="fill:none;stroke:#b0b0b0;stroke-linecap:square;stroke-width:0.8;"/>
     </g>
     <g id="text_8">
      <!-- 315° -->
      <g transform="translate(328.100545 281.27167)scale(0.1 -0.1)">
       <use xlink:href="#DejaVuSans-51"/>
       <use x="63.623047" xlink:href="#DejaVuSans-49"/>
       <use x="127.246094" xlink:href="#DejaVuSans-53"/>
       <use x="190.869141" xlink:href="#DejaVuSans-176"/>
      </g>
     </g>
    </g>
   </g>
   <g id="matplotlib.axis_2">
    <g id="ytick_1">
     <g id="line2d_9">
      <path clip-path="url(#pbb8fbf5df2)" d="M 259.823866 174.528 
L 259.694232 172.054452 
L 259.306753 169.608006 
L 258.665674 167.215463 
L 257.778017 164.903039 
L 256.653509 162.696067 
L 255.304469 160.618729 
L 253.745679 158.693783 
L 251.994217 156.942321 
L 250.069271 155.383531 
L 247.991933 154.034491 
L 245.784961 152.909983 
L 243.472537 152.022326 
L 241.079994 151.381247 
L 238.633548 150.993768 
L 236.16 150.864134 
L 233.686452 150.993768 
L 231.240006 151.381247 
L 228.847463 152.022326 
L 226.535039 152.909983 
L 224.328067 154.034491 
L 222.250729 155.383531 
L 220.325783 156.942321 
L 218.574321 158.693783 
L 217.015531 160.618729 
L 215.666491 162.696067 
L 214.541983 164.903039 
L 213.654326 167.215463 
L 213.013247 169.608006 
L 212.625768 172.054452 
L 212.496134 174.528 
L 212.625768 177.001548 
L 213.013247 179.447994 
L 213.654326 181.840537 
L 214.541983 184.152961 
L 215.666491 186.359933 
L 217.015531 188.437271 
L 218.574321 190.362217 
L 220.325783 192.113679 
L 222.250729 193.672469 
L 224.328067 195.021509 
L 226.535039 196.146017 
L 228.847463 197.033674 
L 231.240006 197.674753 
L 233.686452 198.062232 
L 236.16 198.191866 
L 238.633548 198.062232 
L 241.079994 197.674753 
L 243.472537 197.033674 
L 245.784961 196.146017 
L 247.991933 195.021509 
L 250.069271 193.672469 
L 251.994217 192.113679 
L 253.745679 190.362217 
L 255.304469 188.437271 
L 256.653509 186.359933 
L 257.778017 184.152961 
L 258.665674 181.840537 
L 259.306753 179.447994 
L 259.694232 177.001548 
L 259.823866 174.528 
L 259.823866 174.528 
" style="fill:none;stroke:#b0b0b0;stroke-linecap:square;stroke-width:0.8;"/>
     </g>
     <g id="text_9">
      <!-- 2 -->
      <g transform="translate(258.022561 163.392543)scale(0.1 -0.1)">
       <use xlink:href="#DejaVuSans-50"/>
      </g>
     </g>
    </g>
    <g id="ytick_2">
     <g id="line2d_10">
      <path clip-path="url(#pbb8fbf5df2)" d="M 283.487731 174.528 
L 283.372443 171.226584 
L 283.027141 167.941253 
L 282.453507 164.688011 
L 281.654335 161.482709 
L 280.63352 158.340963 
L 279.396034 155.278078 
L 277.947906 152.308976 
L 276.296192 149.448124 
L 274.448939 146.709458 
L 272.415145 144.106321 
L 270.204721 141.651395 
L 267.828433 139.356642 
L 265.297861 137.233239 
L 262.625331 135.291533 
L 259.823866 133.540983 
L 256.907112 131.990117 
L 253.88928 130.646492 
L 250.785073 129.516653 
L 247.609614 128.606105 
L 244.378374 127.919283 
L 241.107095 127.459535 
L 237.811714 127.2291 
L 234.508286 127.2291 
L 231.212905 127.459535 
L 227.941626 127.919283 
L 224.710386 128.606105 
L 221.534927 129.516653 
L 218.43072 130.646492 
L 215.412888 131.990117 
L 212.496134 133.540983 
L 209.694669 135.291533 
L 207.022139 137.233239 
L 204.491567 139.356642 
L 202.115279 141.651395 
L 199.904855 144.106321 
L 197.871061 146.709458 
L 196.023808 149.448124 
L 194.372094 152.308976 
L 192.923966 155.278078 
L 191.68648 158.340963 
L 190.665665 161.482709 
L 189.866493 164.688011 
L 189.292859 167.941253 
L 188.947557 171.226584 
L 188.832269 174.528 
L 188.947557 177.829416 
L 189.292859 181.114747 
L 189.866493 184.367989 
L 190.665665 187.573291 
L 191.68648 190.715037 
L 192.923966 193.777922 
L 194.372094 196.747024 
L 196.023808 199.607876 
L 197.871061 202.346542 
L 199.904855 204.949679 
L 202.115279 207.404605 
L 204.491567 209.699358 
L 207.022139 211.822761 
L 209.694669 213.764467 
L 212.496134 215.515017 
L 215.412888 217.065883 
L 218.43072 218.409508 
L 221.534927 219.539347 
L 224.710386 220.449895 
L 227.941626 221.136717 
L 231.212905 221.596465 
L 234.508286 221.8269 
L 237.811714 221.8269 
L 241.107095 221.596465 
L 244.378374 221.136717 
L 247.609614 220.449895 
L 250.785073 219.539347 
L 253.88928 218.409508 
L 256.907112 217.065883 
L 259.823866 215.515017 
L 262.625331 213.764467 
L 265.297861 211.822761 
L 267.828433 209.699358 
L 270.204721 207.404605 
L 272.415145 204.949679 
L 274.448939 202.346542 
L 276.296192 199.607876 
L 277.947906 196.747024 
L 279.396034 193.777922 
L 280.63352 190.715037 
L 281.654335 187.573291 
L 282.453507 184.367989 
L 283.027141 181.114747 
L 283.372443 177.829416 
L 283.487731 174.528 
L 283.487731 174.528 
" style="fill:none;stroke:#b0b0b0;stroke-linecap:square;stroke-width:0.8;"/>
     </g>
     <g id="text_10">
      <!-- 4 -->
      <g transform="translate(279.885122 154.336774)scale(0.1 -0.1)">
       <use xlink:href="#DejaVuSans-52"/>
      </g>
     </g>
    </g>
    <g id="ytick_3">
     <g id="line2d_11">
      <path clip-path="url(#pbb8fbf5df2)" d="M 307.151597 174.528 
L 306.978665 169.575877 
L 306.460711 164.647879 
L 305.60026 159.768017 
L 304.401503 154.960064 
L 302.870279 150.247444 
L 301.014051 145.653116 
L 298.841859 141.199464 
L 296.364288 136.908185 
L 293.593408 132.800186 
L 290.542718 128.895481 
L 287.227081 125.213093 
L 283.66265 121.770962 
L 279.866791 118.585858 
L 275.857997 115.673299 
L 271.655798 113.047474 
L 267.280668 110.721176 
L 262.75392 108.705738 
L 258.09761 107.010979 
L 253.334422 105.645157 
L 248.487561 104.614925 
L 243.580643 103.925303 
L 238.637571 103.57965 
L 233.682429 103.57965 
L 228.739357 103.925303 
L 223.832439 104.614925 
L 218.985578 105.645157 
L 214.22239 107.010979 
L 209.56608 108.705738 
L 205.039332 110.721176 
L 200.664202 113.047474 
L 196.462003 115.673299 
L 192.453209 118.585858 
L 188.65735 121.770962 
L 185.092919 125.213093 
L 181.777282 128.895481 
L 178.726592 132.800186 
L 175.955712 136.908185 
L 173.478141 141.199464 
L 171.305949 145.653116 
L 169.449721 150.247444 
L 167.918497 154.960064 
L 166.71974 159.768017 
L 165.859289 164.647879 
L 165.341335 169.575877 
L 165.168403 174.528 
L 165.341335 179.480123 
L 165.859289 184.408121 
L 166.71974 189.287983 
L 167.918497 194.095936 
L 169.449721 198.808556 
L 171.305949 203.402884 
L 173.478141 207.856536 
L 175.955712 212.147815 
L 178.726592 216.255814 
L 181.777282 220.160519 
L 185.092919 223.842907 
L 188.65735 227.285038 
L 192.453209 230.470142 
L 196.462003 233.382701 
L 200.664202 236.008526 
L 205.039332 238.334824 
L 209.56608 240.350262 
L 214.22239 242.045021 
L 218.985578 243.410843 
L 223.832439 244.441075 
L 228.739357 245.130697 
L 233.682429 245.47635 
L 238.637571 245.47635 
L 243.580643 245.130697 
L 248.487561 244.441075 
L 253.334422 243.410843 
L 258.09761 242.045021 
L 262.75392 240.350262 
L 267.280668 238.334824 
L 271.655798 236.008526 
L 275.857997 233.382701 
L 279.866791 230.470142 
L 283.66265 227.285038 
L 287.227081 223.842907 
L 290.542718 220.160519 
L 293.593408 216.255814 
L 296.364288 212.147815 
L 298.841859 207.856536 
L 301.014051 203.402884 
L 302.870279 198.808556 
L 304.401503 194.095936 
L 305.60026 189.287983 
L 306.460711 184.408121 
L 306.978665 179.480123 
L 307.151597 174.528 
L 307.151597 174.528 
" style="fill:none;stroke:#b0b0b0;stroke-linecap:square;stroke-width:0.8;"/>
     </g>
     <g id="text_11">
      <!-- 6 -->
      <defs>
       <path d="M 33.015625 40.375 
Q 26.375 40.375 22.484375 35.828125 
Q 18.609375 31.296875 18.609375 23.390625 
Q 18.609375 15.53125 22.484375 10.953125 
Q 26.375 6.390625 33.015625 6.390625 
Q 39.65625 6.390625 43.53125 10.953125 
Q 47.40625 15.53125 47.40625 23.390625 
Q 47.40625 31.296875 43.53125 35.828125 
Q 39.65625 40.375 33.015625 40.375 
z
M 52.59375 71.296875 
L 52.59375 62.3125 
Q 48.875 64.0625 45.09375 64.984375 
Q 41.3125 65.921875 37.59375 65.921875 
Q 27.828125 65.921875 22.671875 59.328125 
Q 17.53125 52.734375 16.796875 39.40625 
Q 19.671875 43.65625 24.015625 45.921875 
Q 28.375 48.1875 33.59375 48.1875 
Q 44.578125 48.1875 50.953125 41.515625 
Q 57.328125 34.859375 57.328125 23.390625 
Q 57.328125 12.15625 50.6875 5.359375 
Q 44.046875 -1.421875 33.015625 -1.421875 
Q 20.359375 -1.421875 13.671875 8.265625 
Q 6.984375 17.96875 6.984375 36.375 
Q 6.984375 53.65625 15.1875 63.9375 
Q 23.390625 74.21875 37.203125 74.21875 
Q 40.921875 74.21875 44.703125 73.484375 
Q 48.484375 72.75 52.59375 71.296875 
z
" id="DejaVuSans-54"/>
      </defs>
      <g transform="translate(301.747683 145.281005)scale(0.1 -0.1)">
       <use xlink:href="#DejaVuSans-54"/>
      </g>
     </g>
    </g>
    <g id="ytick_4">
     <g id="line2d_12">
      <path clip-path="url(#pbb8fbf5df2)" d="M 330.815462 174.528 
L 330.757801 171.224572 
L 330.584886 167.925169 
L 330.29693 164.63381 
L 329.894282 161.354506 
L 329.377433 158.091251 
L 328.747013 154.848023 
L 328.00379 151.628771 
L 327.14867 148.437419 
L 326.182694 145.277854 
L 325.107039 142.153925 
L 323.923016 139.06944 
L 322.632068 136.028155 
L 321.235766 133.033776 
L 319.735812 130.089952 
L 318.134035 127.200269 
L 316.432384 124.368247 
L 314.632935 121.597337 
L 312.737878 118.890915 
L 310.749522 116.252279 
L 308.670291 113.684642 
L 306.502717 111.191133 
L 304.249441 108.774791 
L 301.913209 106.438559 
L 299.496867 104.185283 
L 297.003358 102.017709 
L 294.435721 99.938478 
L 291.797085 97.950122 
L 289.090663 96.055065 
L 286.319753 94.255616 
L 283.487731 92.553965 
L 280.598048 90.952188 
L 277.654224 89.452234 
L 274.659845 88.055932 
L 271.61856 86.764984 
L 268.534075 85.580961 
L 265.410146 84.505306 
L 262.250581 83.53933 
L 259.059229 82.68421 
L 255.839977 81.940987 
L 252.596749 81.310567 
L 249.333494 80.793718 
L 246.05419 80.39107 
L 242.762831 80.103114 
L 239.463428 79.930199 
L 236.16 79.872538 
L 232.856572 79.930199 
L 229.557169 80.103114 
L 226.26581 80.39107 
L 222.986506 80.793718 
L 219.723251 81.310567 
L 216.480023 81.940987 
L 213.260771 82.68421 
L 210.069419 83.53933 
L 206.909854 84.505306 
L 203.785925 85.580961 
L 200.70144 86.764984 
L 197.660155 88.055932 
L 194.665776 89.452234 
L 191.721952 90.952188 
L 188.832269 92.553965 
L 186.000247 94.255616 
L 183.229337 96.055065 
L 180.522915 97.950122 
L 177.884279 99.938478 
L 175.316642 102.017709 
L 172.823133 104.185283 
L 170.406791 106.438559 
L 168.070559 108.774791 
L 165.817283 111.191133 
L 163.649709 113.684642 
L 161.570478 116.252279 
L 159.582122 118.890915 
L 157.687065 121.597337 
L 155.887616 124.368247 
L 154.185965 127.200269 
L 152.584188 130.089952 
L 151.084234 133.033776 
L 149.687932 136.028155 
L 148.396984 139.06944 
L 147.212961 142.153925 
L 146.137306 145.277854 
L 145.17133 148.437419 
L 144.31621 151.628771 
L 143.572987 154.848023 
L 142.942567 158.091251 
L 142.425718 161.354506 
L 142.02307 164.63381 
L 141.735114 167.925169 
L 141.562199 171.224572 
L 141.504538 174.528 
L 141.562199 177.831428 
L 141.735114 181.130831 
L 142.02307 184.42219 
L 142.425718 187.701494 
L 142.942567 190.964749 
L 143.572987 194.207977 
L 144.31621 197.427229 
L 145.17133 200.618581 
L 146.137306 203.778146 
L 147.212961 206.902075 
L 148.396984 209.98656 
L 149.687932 213.027845 
L 151.084234 216.022224 
L 152.584188 218.966048 
L 154.185965 221.855731 
L 155.887616 224.687753 
L 157.687065 227.458663 
L 159.582122 230.165085 
L 161.570478 232.803721 
L 163.649709 235.371358 
L 165.817283 237.864867 
L 168.070559 240.281209 
L 170.406791 242.617441 
L 172.823133 244.870717 
L 175.316642 247.038291 
L 177.884279 249.117522 
L 180.522915 251.105878 
L 183.229337 253.000935 
L 186.000247 254.800384 
L 188.832269 256.502035 
L 191.721952 258.103812 
L 194.665776 259.603766 
L 197.660155 261.000068 
L 200.70144 262.291016 
L 203.785925 263.475039 
L 206.909854 264.550694 
L 210.069419 265.51667 
L 213.260771 266.37179 
L 216.480023 267.115013 
L 219.723251 267.745433 
L 222.986506 268.262282 
L 226.26581 268.66493 
L 229.557169 268.952886 
L 232.856572 269.125801 
L 236.16 269.183462 
L 239.463428 269.125801 
L 242.762831 268.952886 
L 246.05419 268.66493 
L 249.333494 268.262282 
L 252.596749 267.745433 
L 255.839977 267.115013 
L 259.059229 266.37179 
L 262.250581 265.51667 
L 265.410146 264.550694 
L 268.534075 263.475039 
L 271.61856 262.291016 
L 274.659845 261.000068 
L 277.654224 259.603766 
L 280.598048 258.103812 
L 283.487731 256.502035 
L 286.319753 254.800384 
L 289.090663 253.000935 
L 291.797085 251.105878 
L 294.435721 249.117522 
L 297.003358 247.038291 
L 299.496867 244.870717 
L 301.913209 242.617441 
L 304.249441 240.281209 
L 306.502717 237.864867 
L 308.670291 235.371358 
L 310.749522 232.803721 
L 312.737878 230.165085 
L 314.632935 227.458663 
L 316.432384 224.687753 
L 318.134035 221.855731 
L 319.735812 218.966048 
L 321.235766 216.022224 
L 322.632068 213.027845 
L 323.923016 209.98656 
L 325.107039 206.902075 
L 326.182694 203.778146 
L 327.14867 200.618581 
L 328.00379 197.427229 
L 328.747013 194.207977 
L 329.377433 190.964749 
L 329.894282 187.701494 
L 330.29693 184.42219 
L 330.584886 181.130831 
L 330.757801 177.831428 
L 330.815462 174.528 
L 330.815462 174.528 
" style="fill:none;stroke:#b0b0b0;stroke-linecap:square;stroke-width:0.8;"/>
     </g>
     <g id="text_12">
      <!-- 8 -->
      <g transform="translate(323.610244 136.225235)scale(0.1 -0.1)">
       <use xlink:href="#DejaVuSans-56"/>
      </g>
     </g>
    </g>
    <g id="ytick_5">
     <g id="line2d_13">
      <path clip-path="url(#pbb8fbf5df2)" d="M 354.479328 174.528 
L 354.407251 170.398715 
L 354.191108 166.274461 
L 353.831162 162.160262 
L 353.327852 158.061132 
L 352.681791 153.982064 
L 351.893767 149.928029 
L 350.964738 145.903964 
L 349.895838 141.914773 
L 348.688368 137.965317 
L 347.343799 134.060407 
L 345.86377 130.2048 
L 344.250084 126.403194 
L 342.504707 122.660221 
L 340.629766 118.98044 
L 338.627544 115.368336 
L 336.500481 111.828309 
L 334.251168 108.364672 
L 331.882347 104.981644 
L 329.396903 101.683348 
L 326.797864 98.473802 
L 324.088396 95.356916 
L 321.271802 92.336489 
L 318.351511 89.416198 
L 315.331084 86.599604 
L 312.214198 83.890136 
L 309.004652 81.291097 
L 305.706356 78.805653 
L 302.323328 76.436832 
L 298.859691 74.187519 
L 295.319664 72.060456 
L 291.70756 70.058234 
L 288.027779 68.183293 
L 284.284806 66.437916 
L 280.4832 64.82423 
L 276.627593 63.344201 
L 272.722683 61.999632 
L 268.773227 60.792162 
L 264.784036 59.723262 
L 260.759971 58.794233 
L 256.705936 58.006209 
L 252.626868 57.360148 
L 248.527738 56.856838 
L 244.413539 56.496892 
L 240.289285 56.280749 
L 236.16 56.208672 
L 232.030715 56.280749 
L 227.906461 56.496892 
L 223.792262 56.856838 
L 219.693132 57.360148 
L 215.614064 58.006209 
L 211.560029 58.794233 
L 207.535964 59.723262 
L 203.546773 60.792162 
L 199.597317 61.999632 
L 195.692407 63.344201 
L 191.8368 64.82423 
L 188.035194 66.437916 
L 184.292221 68.183293 
L 180.61244 70.058234 
L 177.000336 72.060456 
L 173.460309 74.187519 
L 169.996672 76.436832 
L 166.613644 78.805653 
L 163.315348 81.291097 
L 160.105802 83.890136 
L 156.988916 86.599604 
L 153.968489 89.416198 
L 151.048198 92.336489 
L 148.231604 95.356916 
L 145.522136 98.473802 
L 142.923097 101.683348 
L 140.437653 104.981644 
L 138.068832 108.364672 
L 135.819519 111.828309 
L 133.692456 115.368336 
L 131.690234 118.98044 
L 129.815293 122.660221 
L 128.069916 126.403194 
L 126.45623 130.2048 
L 124.976201 134.060407 
L 123.631632 137.965317 
L 122.424162 141.914773 
L 121.355262 145.903964 
L 120.426233 149.928029 
L 119.638209 153.982064 
L 118.992148 158.061132 
L 118.488838 162.160262 
L 118.128892 166.274461 
L 117.912749 170.398715 
L 117.840672 174.528 
L 117.912749 178.657285 
L 118.128892 182.781539 
L 118.488838 186.895738 
L 118.992148 190.994868 
L 119.638209 195.073936 
L 120.426233 199.127971 
L 121.355262 203.152036 
L 122.424162 207.141227 
L 123.631632 211.090683 
L 124.976201 214.995593 
L 126.45623 218.8512 
L 128.069916 222.652806 
L 129.815293 226.395779 
L 131.690234 230.07556 
L 133.692456 233.687664 
L 135.819519 237.227691 
L 138.068832 240.691328 
L 140.437653 244.074356 
L 142.923097 247.372652 
L 145.522136 250.582198 
L 148.231604 253.699084 
L 151.048198 256.719511 
L 153.968489 259.639802 
L 156.988916 262.456396 
L 160.105802 265.165864 
L 163.315348 267.764903 
L 166.613644 270.250347 
L 169.996672 272.619168 
L 173.460309 274.868481 
L 177.000336 276.995544 
L 180.61244 278.997766 
L 184.292221 280.872707 
L 188.035194 282.618084 
L 191.8368 284.23177 
L 195.692407 285.711799 
L 199.597317 287.056368 
L 203.546773 288.263838 
L 207.535964 289.332738 
L 211.560029 290.261767 
L 215.614064 291.049791 
L 219.693132 291.695852 
L 223.792262 292.199162 
L 227.906461 292.559108 
L 232.030715 292.775251 
L 236.16 292.847328 
L 240.289285 292.775251 
L 244.413539 292.559108 
L 248.527738 292.199162 
L 252.626868 291.695852 
L 256.705936 291.049791 
L 260.759971 290.261767 
L 264.784036 289.332738 
L 268.773227 288.263838 
L 272.722683 287.056368 
L 276.627593 285.711799 
L 280.4832 284.23177 
L 284.284806 282.618084 
L 288.027779 280.872707 
L 291.70756 278.997766 
L 295.319664 276.995544 
L 298.859691 274.868481 
L 302.323328 272.619168 
L 305.706356 270.250347 
L 309.004652 267.764903 
L 312.214198 265.165864 
L 315.331084 262.456396 
L 318.351511 259.639802 
L 321.271802 256.719511 
L 324.088396 253.699084 
L 326.797864 250.582198 
L 329.396903 247.372652 
L 331.882347 244.074356 
L 334.251168 240.691328 
L 336.500481 237.227691 
L 338.627544 233.687664 
L 340.629766 230.07556 
L 342.504707 226.395779 
L 344.250084 222.652806 
L 345.86377 218.8512 
L 347.343799 214.995593 
L 348.688368 211.090683 
L 349.895838 207.141227 
L 350.964738 203.152036 
L 351.893767 199.127971 
L 352.681791 195.073936 
L 353.327852 190.994868 
L 353.831162 186.895738 
L 354.191108 182.781539 
L 354.407251 178.657285 
L 354.479328 174.528 
L 354.479328 174.528 
" style="fill:none;stroke:#b0b0b0;stroke-linecap:square;stroke-width:0.8;"/>
     </g>
     <g id="text_13">
      <!-- 10 -->
      <g transform="translate(345.472805 127.169466)scale(0.1 -0.1)">
       <use xlink:href="#DejaVuSans-49"/>
       <use x="63.623047" xlink:href="#DejaVuSans-48"/>
      </g>
     </g>
    </g>
   </g>
   <g id="line2d_14">
    <defs>
     <path d="M 0 0.75 
C 0.198902 0.75 0.389685 0.670975 0.53033 0.53033 
C 0.670975 0.389685 0.75 0.198902 0.75 0 
C 0.75 -0.198902 0.670975 -0.389685 0.53033 -0.53033 
C 0.389685 -0.670975 0.198902 -0.75 0 -0.75 
C -0.198902 -0.75 -0.389685 -0.670975 -0.53033 -0.53033 
C -0.670975 -0.389685 -0.75 -0.198902 -0.75 0 
C -0.75 0.198902 -0.670975 0.389685 -0.53033 0.53033 
C -0.389685 0.670975 -0.198902 0.75 0 0.75 
z
" id="m45d14c73e7" style="stroke:#000000;"/>
    </defs>
    <g clip-path="url(#pbb8fbf5df2)">
     <use style="stroke:#000000;" x="236.16" xlink:href="#m45d14c73e7" y="188.253042"/>
     <use style="stroke:#000000;" x="236.279772" xlink:href="#m45d14c73e7" y="188.252519"/>
     <use style="stroke:#000000;" x="236.4016" xlink:href="#m45d14c73e7" y="188.369253"/>
     <use style="stroke:#000000;" x="236.51928" xlink:href="#m45d14c73e7" y="188.248339"/>
     <use style="stroke:#000000;" x="236.638997" xlink:href="#m45d14c73e7" y="188.244681"/>
     <use style="stroke:#000000;" x="236.758678" xlink:href="#m45d14c73e7" y="188.239979"/>
     <use style="stroke:#000000;" x="236.878313" xlink:href="#m45d14c73e7" y="188.234232"/>
     <use style="stroke:#000000;" x="236.997894" xlink:href="#m45d14c73e7" y="188.227442"/>
     <use style="stroke:#000000;" x="237.117411" xlink:href="#m45d14c73e7" y="188.219609"/>
     <use style="stroke:#000000;" x="237.236854" xlink:href="#m45d14c73e7" y="188.210732"/>
     <use style="stroke:#000000;" x="237.356216" xlink:href="#m45d14c73e7" y="188.200814"/>
     <use style="stroke:#000000;" x="237.486827" xlink:href="#m45d14c73e7" y="188.307629"/>
     <use style="stroke:#000000;" x="237.594658" xlink:href="#m45d14c73e7" y="188.177855"/>
     <use style="stroke:#000000;" x="237.727113" xlink:href="#m45d14c73e7" y="188.282374"/>
     <use style="stroke:#000000;" x="237.847081" xlink:href="#m45d14c73e7" y="188.268175"/>
     <use style="stroke:#000000;" x="237.951477" xlink:href="#m45d14c73e7" y="188.135622"/>
     <use style="stroke:#000000;" x="238.070157" xlink:href="#m45d14c73e7" y="188.119471"/>
     <use style="stroke:#000000;" x="238.18869" xlink:href="#m45d14c73e7" y="188.102284"/>
     <use style="stroke:#000000;" x="238.30707" xlink:href="#m45d14c73e7" y="188.084064"/>
     <use style="stroke:#000000;" x="238.444814" xlink:href="#m45d14c73e7" y="188.181508"/>
     <use style="stroke:#000000;" x="238.58442" xlink:href="#m45d14c73e7" y="188.277571"/>
     <use style="stroke:#000000;" x="238.704314" xlink:href="#m45d14c73e7" y="188.255891"/>
     <use style="stroke:#000000;" x="238.824014" xlink:href="#m45d14c73e7" y="188.233165"/>
     <use style="stroke:#000000;" x="238.943511" xlink:href="#m45d14c73e7" y="188.209396"/>
     <use style="stroke:#000000;" x="239.087397" xlink:href="#m45d14c73e7" y="188.300318"/>
     <use style="stroke:#000000;" x="239.20747" xlink:href="#m45d14c73e7" y="188.274248"/>
     <use style="stroke:#000000;" x="239.353927" xlink:href="#m45d14c73e7" y="188.362417"/>
     <use style="stroke:#000000;" x="239.474532" xlink:href="#m45d14c73e7" y="188.334019"/>
     <use style="stroke:#000000;" x="239.623508" xlink:href="#m45d14c73e7" y="188.419373"/>
     <use style="stroke:#000000;" x="239.714975" xlink:href="#m45d14c73e7" y="188.274069"/>
     <use style="stroke:#000000;" x="239.865419" xlink:href="#m45d14c73e7" y="188.356811"/>
     <use style="stroke:#000000;" x="239.985955" xlink:href="#m45d14c73e7" y="188.323949"/>
     <use style="stroke:#000000;" x="240.1062" xlink:href="#m45d14c73e7" y="188.290036"/>
     <use style="stroke:#000000;" x="240.25975" xlink:href="#m45d14c73e7" y="188.368523"/>
     <use style="stroke:#000000;" x="240.380373" xlink:href="#m45d14c73e7" y="188.332219"/>
     <use style="stroke:#000000;" x="240.500676" xlink:href="#m45d14c73e7" y="188.294864"/>
     <use style="stroke:#000000;" x="240.620647" xlink:href="#m45d14c73e7" y="188.256461"/>
     <use style="stroke:#000000;" x="240.777823" xlink:href="#m45d14c73e7" y="188.329217"/>
     <use style="stroke:#000000;" x="240.898084" xlink:href="#m45d14c73e7" y="188.288394"/>
     <use style="stroke:#000000;" x="241.05748" xlink:href="#m45d14c73e7" y="188.358056"/>
     <use style="stroke:#000000;" x="241.177982" xlink:href="#m45d14c73e7" y="188.314791"/>
     <use style="stroke:#000000;" x="241.298101" xlink:href="#m45d14c73e7" y="188.270477"/>
     <use style="stroke:#000000;" x="241.460232" xlink:href="#m45d14c73e7" y="188.335576"/>
     <use style="stroke:#000000;" x="241.623887" xlink:href="#m45d14c73e7" y="188.398884"/>
     <use style="stroke:#000000;" x="241.744723" xlink:href="#m45d14c73e7" y="188.350675"/>
     <use style="stroke:#000000;" x="241.865135" xlink:href="#m45d14c73e7" y="188.301413"/>
     <use style="stroke:#000000;" x="242.031343" xlink:href="#m45d14c73e7" y="188.360016"/>
     <use style="stroke:#000000;" x="242.151825" xlink:href="#m45d14c73e7" y="188.308253"/>
     <use style="stroke:#000000;" x="242.319975" xlink:href="#m45d14c73e7" y="188.363531"/>
     <use style="stroke:#000000;" x="242.440477" xlink:href="#m45d14c73e7" y="188.309249"/>
     <use style="stroke:#000000;" x="242.610504" xlink:href="#m45d14c73e7" y="188.361151"/>
     <use style="stroke:#000000;" x="242.730974" xlink:href="#m45d14c73e7" y="188.304334"/>
     <use style="stroke:#000000;" x="242.902811" xlink:href="#m45d14c73e7" y="188.352812"/>
     <use style="stroke:#000000;" x="243.075991" xlink:href="#m45d14c73e7" y="188.399332"/>
     <use style="stroke:#000000;" x="243.196776" xlink:href="#m45d14c73e7" y="188.338451"/>
     <use style="stroke:#000000;" x="243.37166" xlink:href="#m45d14c73e7" y="188.381469"/>
     <use style="stroke:#000000;" x="243.492278" xlink:href="#m45d14c73e7" y="188.318009"/>
     <use style="stroke:#000000;" x="243.668795" xlink:href="#m45d14c73e7" y="188.35748"/>
     <use style="stroke:#000000;" x="243.846555" xlink:href="#m45d14c73e7" y="188.394912"/>
     <use style="stroke:#000000;" x="243.967272" xlink:href="#m45d14c73e7" y="188.327307"/>
     <use style="stroke:#000000;" x="244.146555" xlink:href="#m45d14c73e7" y="188.361118"/>
     <use style="stroke:#000000;" x="244.266966" xlink:href="#m45d14c73e7" y="188.290897"/>
     <use style="stroke:#000000;" x="244.386759" xlink:href="#m45d14c73e7" y="188.219627"/>
     <use style="stroke:#000000;" x="244.567748" xlink:href="#m45d14c73e7" y="188.248198"/>
     <use style="stroke:#000000;" x="244.749858" xlink:href="#m45d14c73e7" y="188.274646"/>
     <use style="stroke:#000000;" x="244.869491" xlink:href="#m45d14c73e7" y="188.199163"/>
     <use style="stroke:#000000;" x="245.052903" xlink:href="#m45d14c73e7" y="188.221869"/>
     <use style="stroke:#000000;" x="245.237369" xlink:href="#m45d14c73e7" y="188.242409"/>
     <use style="stroke:#000000;" x="245.422866" xlink:href="#m45d14c73e7" y="188.260764"/>
     <use style="stroke:#000000;" x="245.676386" xlink:href="#m45d14c73e7" y="188.374428"/>
     <use style="stroke:#000000;" x="245.796855" xlink:href="#m45d14c73e7" y="188.290856"/>
     <use style="stroke:#000000;" x="245.985299" xlink:href="#m45d14c73e7" y="188.302561"/>
     <use style="stroke:#000000;" x="246.244222" xlink:href="#m45d14c73e7" y="188.40774"/>
     <use style="stroke:#000000;" x="246.435339" xlink:href="#m45d14c73e7" y="188.414323"/>
     <use style="stroke:#000000;" x="246.627333" xlink:href="#m45d14c73e7" y="188.41862"/>
     <use style="stroke:#000000;" x="246.748152" xlink:href="#m45d14c73e7" y="188.326748"/>
     <use style="stroke:#000000;" x="246.941008" xlink:href="#m45d14c73e7" y="188.327062"/>
     <use style="stroke:#000000;" x="247.134671" xlink:href="#m45d14c73e7" y="188.325053"/>
     <use style="stroke:#000000;" x="247.403576" xlink:href="#m45d14c73e7" y="188.41266"/>
     <use style="stroke:#000000;" x="247.599573" xlink:href="#m45d14c73e7" y="188.405311"/>
     <use style="stroke:#000000;" x="247.796292" xlink:href="#m45d14c73e7" y="188.395593"/>
     <use style="stroke:#000000;" x="247.993707" xlink:href="#m45d14c73e7" y="188.383491"/>
     <use style="stroke:#000000;" x="248.191792" xlink:href="#m45d14c73e7" y="188.368993"/>
     <use style="stroke:#000000;" x="248.390518" xlink:href="#m45d14c73e7" y="188.352086"/>
     <use style="stroke:#000000;" x="248.58986" xlink:href="#m45d14c73e7" y="188.332758"/>
     <use style="stroke:#000000;" x="248.78979" xlink:href="#m45d14c73e7" y="188.310997"/>
     <use style="stroke:#000000;" x="248.99028" xlink:href="#m45d14c73e7" y="188.286791"/>
     <use style="stroke:#000000;" x="249.191304" xlink:href="#m45d14c73e7" y="188.260129"/>
     <use style="stroke:#000000;" x="249.475025" xlink:href="#m45d14c73e7" y="188.316112"/>
     <use style="stroke:#000000;" x="249.677771" xlink:href="#m45d14c73e7" y="188.283784"/>
     <use style="stroke:#000000;" x="249.964626" xlink:href="#m45d14c73e7" y="188.332626"/>
     <use style="stroke:#000000;" x="250.168958" xlink:href="#m45d14c73e7" y="188.294565"/>
     <use style="stroke:#000000;" x="250.458783" xlink:href="#m45d14c73e7" y="188.336174"/>
     <use style="stroke:#000000;" x="250.664562" xlink:href="#m45d14c73e7" y="188.292315"/>
     <use style="stroke:#000000;" x="250.870657" xlink:href="#m45d14c73e7" y="188.24591"/>
     <use style="stroke:#000000;" x="251.077041" xlink:href="#m45d14c73e7" y="188.19695"/>
     <use style="stroke:#000000;" x="251.371613" xlink:href="#m45d14c73e7" y="188.224597"/>
     <use style="stroke:#000000;" x="252.376717" xlink:href="#m45d14c73e7" y="188.875339"/>
     <use style="stroke:#000000;" x="253.215675" xlink:href="#m45d14c73e7" y="189.354272"/>
     <use style="stroke:#000000;" x="253.794262" xlink:href="#m45d14c73e7" y="189.589082"/>
     <use style="stroke:#000000;" x="254.106297" xlink:href="#m45d14c73e7" y="189.586731"/>
     <use style="stroke:#000000;" x="254.41962" xlink:href="#m45d14c73e7" y="189.580069"/>
     <use style="stroke:#000000;" x="254.73418" xlink:href="#m45d14c73e7" y="189.569075"/>
     <use style="stroke:#000000;" x="255.142523" xlink:href="#m45d14c73e7" y="189.62738"/>
     <use style="stroke:#000000;" x="255.553276" xlink:href="#m45d14c73e7" y="189.679688"/>
     <use style="stroke:#000000;" x="255.778628" xlink:href="#m45d14c73e7" y="189.581903"/>
     <use style="stroke:#000000;" x="256.192732" xlink:href="#m45d14c73e7" y="189.623746"/>
     <use style="stroke:#000000;" x="256.609038" xlink:href="#m45d14c73e7" y="189.659492"/>
     <use style="stroke:#000000;" x="257.027472" xlink:href="#m45d14c73e7" y="189.689106"/>
     <use style="stroke:#000000;" x="257.351632" xlink:href="#m45d14c73e7" y="189.643844"/>
     <use style="stroke:#000000;" x="257.87042" xlink:href="#m45d14c73e7" y="189.7298"/>
     <use style="stroke:#000000;" x="258.197273" xlink:href="#m45d14c73e7" y="189.673798"/>
     <use style="stroke:#000000;" x="258.524786" xlink:href="#m45d14c73e7" y="189.613239"/>
     <use style="stroke:#000000;" x="259.050236" xlink:href="#m45d14c73e7" y="189.678717"/>
     <use style="stroke:#000000;" x="259.47927" xlink:href="#m45d14c73e7" y="189.671711"/>
     <use style="stroke:#000000;" x="260.009693" xlink:href="#m45d14c73e7" y="189.72193"/>
     <use style="stroke:#000000;" x="260.442396" xlink:href="#m45d14c73e7" y="189.701325"/>
     <use style="stroke:#000000;" x="260.977418" xlink:href="#m45d14c73e7" y="189.736133"/>
     <use style="stroke:#000000;" x="261.514865" xlink:href="#m45d14c73e7" y="189.76274"/>
     <use style="stroke:#000000;" x="262.054635" xlink:href="#m45d14c73e7" y="189.781106"/>
     <use style="stroke:#000000;" x="262.391691" xlink:href="#m45d14c73e7" y="189.672874"/>
     <use style="stroke:#000000;" x="262.213915" xlink:href="#m45d14c73e7" y="189.268596"/>
     <use style="stroke:#000000;" x="262.341557" xlink:href="#m45d14c73e7" y="189.040674"/>
     <use style="stroke:#000000;" x="262.363225" xlink:href="#m45d14c73e7" y="188.75519"/>
     <use style="stroke:#000000;" x="262.486381" xlink:href="#m45d14c73e7" y="188.525985"/>
     <use style="stroke:#000000;" x="262.817433" xlink:href="#m45d14c73e7" y="188.404982"/>
     <use style="stroke:#000000;" x="263.570056" xlink:href="#m45d14c73e7" y="188.494121"/>
     <use style="stroke:#000000;" x="264.326217" xlink:href="#m45d14c73e7" y="188.571158"/>
     <use style="stroke:#000000;" x="264.979416" xlink:href="#m45d14c73e7" y="188.584168"/>
     <use style="stroke:#000000;" x="265.528153" xlink:href="#m45d14c73e7" y="188.53589"/>
     <use style="stroke:#000000;" x="266.185444" xlink:href="#m45d14c73e7" y="188.529094"/>
     <use style="stroke:#000000;" x="267.060144" xlink:href="#m45d14c73e7" y="188.610007"/>
     <use style="stroke:#000000;" x="267.614215" xlink:href="#m45d14c73e7" y="188.532319"/>
     <use style="stroke:#000000;" x="268.603274" xlink:href="#m45d14c73e7" y="188.634737"/>
     <use style="stroke:#000000;" x="269.378622" xlink:href="#m45d14c73e7" y="188.628469"/>
     <use style="stroke:#000000;" x="270.265595" xlink:href="#m45d14c73e7" y="188.655"/>
     <use style="stroke:#000000;" x="271.045799" xlink:href="#m45d14c73e7" y="188.622778"/>
     <use style="stroke:#000000;" x="271.938074" xlink:href="#m45d14c73e7" y="188.621358"/>
     <use style="stroke:#000000;" x="272.943383" xlink:href="#m45d14c73e7" y="188.647818"/>
     <use style="stroke:#000000;" x="273.95181" xlink:href="#m45d14c73e7" y="188.657779"/>
     <use style="stroke:#000000;" x="274.963146" xlink:href="#m45d14c73e7" y="188.65119"/>
     <use style="stroke:#000000;" x="276.088709" xlink:href="#m45d14c73e7" y="188.667498"/>
     <use style="stroke:#000000;" x="277.441182" xlink:href="#m45d14c73e7" y="188.742251"/>
     <use style="stroke:#000000;" x="279.022317" xlink:href="#m45d14c73e7" y="188.869531"/>
     <use style="stroke:#000000;" x="280.383648" xlink:href="#m45d14c73e7" y="188.897134"/>
     <use style="stroke:#000000;" x="281.748632" xlink:href="#m45d14c73e7" y="188.90204"/>
     <use style="stroke:#000000;" x="283.343273" xlink:href="#m45d14c73e7" y="188.953374"/>
     <use style="stroke:#000000;" x="284.828723" xlink:href="#m45d14c73e7" y="188.944332"/>
     <use style="stroke:#000000;" x="286.43124" xlink:href="#m45d14c73e7" y="188.943046"/>
     <use style="stroke:#000000;" x="288.265361" xlink:href="#m45d14c73e7" y="188.978096"/>
     <use style="stroke:#000000;" x="351.019133" xlink:href="#m45d14c73e7" y="205.304412"/>
     <use style="stroke:#000000;" x="350.825129" xlink:href="#m45d14c73e7" y="204.182419"/>
     <use style="stroke:#000000;" x="351.079543" xlink:href="#m45d14c73e7" y="203.18066"/>
     <use style="stroke:#000000;" x="350.980055" xlink:href="#m45d14c73e7" y="202.093856"/>
     <use style="stroke:#000000;" x="351.100951" xlink:href="#m45d14c73e7" y="201.064209"/>
     <use style="stroke:#000000;" x="350.866084" xlink:href="#m45d14c73e7" y="199.957727"/>
     <use style="stroke:#000000;" x="351.08363" xlink:href="#m45d14c73e7" y="198.955772"/>
     <use style="stroke:#000000;" x="350.828648" xlink:href="#m45d14c73e7" y="197.8576"/>
     <use style="stroke:#000000;" x="351.027868" xlink:href="#m45d14c73e7" y="196.856052"/>
     <use style="stroke:#000000;" x="350.869327" xlink:href="#m45d14c73e7" y="195.788117"/>
     <use style="stroke:#000000;" x="351.050486" xlink:href="#m45d14c73e7" y="194.786293"/>
     <use style="stroke:#000000;" x="350.872806" xlink:href="#m45d14c73e7" y="193.72434"/>
     <use style="stroke:#000000;" x="351.152819" xlink:href="#m45d14c73e7" y="192.741073"/>
     <use style="stroke:#000000;" x="350.839298" xlink:href="#m45d14c73e7" y="191.666936"/>
     <use style="stroke:#000000;" x="351.101663" xlink:href="#m45d14c73e7" y="190.681997"/>
     <use style="stroke:#000000;" x="351.003641" xlink:href="#m45d14c73e7" y="189.647452"/>
     <use style="stroke:#000000;" x="351.248646" xlink:href="#m45d14c73e7" y="188.659109"/>
     <use style="stroke:#000000;" x="351.014903" xlink:href="#m45d14c73e7" y="187.614063"/>
     <use style="stroke:#000000;" x="351.124725" xlink:href="#m45d14c73e7" y="186.61128"/>
     <use style="stroke:#000000;" x="351.108018" xlink:href="#m45d14c73e7" y="185.596235"/>
     <use style="stroke:#000000;" x="351.200229" xlink:href="#m45d14c73e7" y="184.592716"/>
     <use style="stroke:#000000;" x="351.165724" xlink:href="#m45d14c73e7" y="183.579147"/>
     <use style="stroke:#000000;" x="351.358361" xlink:href="#m45d14c73e7" y="182.583454"/>
     <use style="stroke:#000000;" x="351.069975" xlink:href="#m45d14c73e7" y="181.556195"/>
     <use style="stroke:#000000;" x="351.245089" xlink:href="#m45d14c73e7" y="180.559354"/>
     <use style="stroke:#000000;" x="351.411546" xlink:href="#m45d14c73e7" y="179.559991"/>
     <use style="stroke:#000000;" x="352.2788" xlink:href="#m45d14c73e7" y="178.582958"/>
     <use style="stroke:#000000;" x="352.546322" xlink:href="#m45d14c73e7" y="177.575683"/>
     <use style="stroke:#000000;" x="353.041691" xlink:href="#m45d14c73e7" y="176.568178"/>
     <use style="stroke:#000000;" x="352.581785" xlink:href="#m45d14c73e7" y="175.543998"/>
     <use style="stroke:#000000;" x="353.059496" xlink:href="#m45d14c73e7" y="174.528"/>
     <use style="stroke:#000000;" x="352.93673" xlink:href="#m45d14c73e7" y="173.508905"/>
     <use style="stroke:#000000;" x="353.041691" xlink:href="#m45d14c73e7" y="172.487822"/>
     <use style="stroke:#000000;" x="352.664601" xlink:href="#m45d14c73e7" y="171.47722"/>
     <use style="stroke:#000000;" x="352.397048" xlink:href="#m45d14c73e7" y="170.468913"/>
     <use style="stroke:#000000;" x="351.884373" xlink:href="#m45d14c73e7" y="169.475365"/>
     <use style="stroke:#000000;" x="328.913383" xlink:href="#m45d14c73e7" y="169.667001"/>
     <use style="stroke:#000000;" x="318.002356" xlink:href="#m45d14c73e7" y="169.522307"/>
     <use style="stroke:#000000;" x="310.873691" xlink:href="#m45d14c73e7" y="169.30351"/>
     <use style="stroke:#000000;" x="304.101843" xlink:href="#m45d14c73e7" y="169.180861"/>
     <use style="stroke:#000000;" x="297.923402" xlink:href="#m45d14c73e7" y="169.124403"/>
     <use style="stroke:#000000;" x="293.045136" xlink:href="#m45d14c73e7" y="169.050584"/>
     <use style="stroke:#000000;" x="288.641338" xlink:href="#m45d14c73e7" y="169.011989"/>
     <use style="stroke:#000000;" x="285.299559" xlink:href="#m45d14c73e7" y="168.929254"/>
     <use style="stroke:#000000;" x="281.725709" xlink:href="#m45d14c73e7" y="168.933234"/>
     <use style="stroke:#000000;" x="278.977088" xlink:href="#m45d14c73e7" y="168.891023"/>
     <use style="stroke:#000000;" x="276.582909" xlink:href="#m45d14c73e7" y="168.846931"/>
     <use style="stroke:#000000;" x="274.425439" xlink:href="#m45d14c73e7" y="168.809192"/>
     <use style="stroke:#000000;" x="272.387412" xlink:href="#m45d14c73e7" y="168.790142"/>
     <use style="stroke:#000000;" x="270.702208" xlink:href="#m45d14c73e7" y="168.747617"/>
     <use style="stroke:#000000;" x="269.252189" xlink:href="#m45d14c73e7" y="168.692954"/>
     <use style="stroke:#000000;" x="267.803952" xlink:href="#m45d14c73e7" y="168.66314"/>
     <use style="stroke:#000000;" x="265.544804" xlink:href="#m45d14c73e7" y="168.816173"/>
     <use style="stroke:#000000;" x="264.91412" xlink:href="#m45d14c73e7" y="168.677908"/>
     <use style="stroke:#000000;" x="264.399039" xlink:href="#m45d14c73e7" y="168.525607"/>
     <use style="stroke:#000000;" x="262.728378" xlink:href="#m45d14c73e7" y="168.637932"/>
     <use style="stroke:#000000;" x="261.638385" xlink:href="#m45d14c73e7" y="168.645851"/>
     <use style="stroke:#000000;" x="261.125884" xlink:href="#m45d14c73e7" y="168.534222"/>
     <use style="stroke:#000000;" x="260.15419" xlink:href="#m45d14c73e7" y="168.545576"/>
     <use style="stroke:#000000;" x="258.955565" xlink:href="#m45d14c73e7" y="168.632666"/>
     <use style="stroke:#000000;" x="258.331813" xlink:href="#m45d14c73e7" y="168.587081"/>
     <use style="stroke:#000000;" x="257.481012" xlink:href="#m45d14c73e7" y="168.61516"/>
     <use style="stroke:#000000;" x="257.087394" xlink:href="#m45d14c73e7" y="168.527166"/>
     <use style="stroke:#000000;" x="256.353549" xlink:href="#m45d14c73e7" y="168.546398"/>
     <use style="stroke:#000000;" x="255.508536" xlink:href="#m45d14c73e7" y="168.612559"/>
     <use style="stroke:#000000;" x="255.117649" xlink:href="#m45d14c73e7" y="168.550676"/>
     <use style="stroke:#000000;" x="254.839709" xlink:href="#m45d14c73e7" y="168.458595"/>
     <use style="stroke:#000000;" x="254.000598" xlink:href="#m45d14c73e7" y="168.558619"/>
     <use style="stroke:#000000;" x="253.835953" xlink:href="#m45d14c73e7" y="168.441681"/>
     <use style="stroke:#000000;" x="253.112972" xlink:href="#m45d14c73e7" y="168.524638"/>
     <use style="stroke:#000000;" x="252.83757" xlink:href="#m45d14c73e7" y="168.457861"/>
     <use style="stroke:#000000;" x="252.673137" xlink:href="#m45d14c73e7" y="168.353991"/>
     <use style="stroke:#000000;" x="251.845406" xlink:href="#m45d14c73e7" y="168.506937"/>
     <use style="stroke:#000000;" x="251.462007" xlink:href="#m45d14c73e7" y="168.500379"/>
     <use style="stroke:#000000;" x="251.079713" xlink:href="#m45d14c73e7" y="168.500045"/>
     <use style="stroke:#000000;" x="332.355269" xlink:href="#m45d14c73e7" y="134.682615"/>
     <use style="stroke:#000000;" x="250.427671" xlink:href="#m45d14c73e7" y="168.471733"/>
     <use style="stroke:#000000;" x="250.157265" xlink:href="#m45d14c73e7" y="168.441816"/>
     <use style="stroke:#000000;" x="332.252085" xlink:href="#m45d14c73e7" y="131.745047"/>
     <use style="stroke:#000000;" x="249.295253" xlink:href="#m45d14c73e7" y="168.54192"/>
     <use style="stroke:#000000;" x="248.706346" xlink:href="#m45d14c73e7" y="168.677543"/>
     <use style="stroke:#000000;" x="248.548021" xlink:href="#m45d14c73e7" y="168.619217"/>
     <use style="stroke:#000000;" x="248.708675" xlink:href="#m45d14c73e7" y="168.407602"/>
     <use style="stroke:#000000;" x="248.443012" xlink:href="#m45d14c73e7" y="168.403916"/>
     <use style="stroke:#000000;" x="332.20062" xlink:href="#m45d14c73e7" y="125.59286"/>
     <use style="stroke:#000000;" x="332.399632" xlink:href="#m45d14c73e7" y="124.428819"/>
     <use style="stroke:#000000;" x="247.651674" xlink:href="#m45d14c73e7" y="168.417768"/>
     <use style="stroke:#000000;" x="247.389953" xlink:href="#m45d14c73e7" y="168.430633"/>
     <use style="stroke:#000000;" x="332.090053" xlink:href="#m45d14c73e7" y="121.353103"/>
     <use style="stroke:#000000;" x="332.240247" xlink:href="#m45d14c73e7" y="120.168411"/>
     <use style="stroke:#000000;" x="332.479491" xlink:href="#m45d14c73e7" y="118.917916"/>
     <use style="stroke:#000000;" x="332.500277" xlink:href="#m45d14c73e7" y="117.77924"/>
     <use style="stroke:#000000;" x="246.403365" xlink:href="#m45d14c73e7" y="168.373165"/>
     <use style="stroke:#000000;" x="246.248381" xlink:href="#m45d14c73e7" y="168.345832"/>
     <use style="stroke:#000000;" x="332.687542" xlink:href="#m45d14c73e7" y="114.210897"/>
     <use style="stroke:#000000;" x="332.357087" xlink:href="#m45d14c73e7" y="113.243697"/>
     <use style="stroke:#000000;" x="332.314779" xlink:href="#m45d14c73e7" y="112.084357"/>
     <use style="stroke:#000000;" x="331.96353" xlink:href="#m45d14c73e7" y="111.117027"/>
     <use style="stroke:#000000;" x="245.38057" xlink:href="#m45d14c73e7" y="168.308647"/>
     <use style="stroke:#000000;" x="245.130925" xlink:href="#m45d14c73e7" y="168.362454"/>
     <use style="stroke:#000000;" x="244.786015" xlink:href="#m45d14c73e7" y="168.487999"/>
     <use style="stroke:#000000;" x="244.636653" xlink:href="#m45d14c73e7" y="168.481662"/>
     <use style="stroke:#000000;" x="332.456681" xlink:href="#m45d14c73e7" y="104.564366"/>
     <use style="stroke:#000000;" x="332.318033" xlink:href="#m45d14c73e7" y="103.374798"/>
     <use style="stroke:#000000;" x="306.27456" xlink:href="#m45d14c73e7" y="121.692889"/>
     <use style="stroke:#000000;" x="305.716954" xlink:href="#m45d14c73e7" y="121.155072"/>
     <use style="stroke:#000000;" x="244.644558" xlink:href="#m45d14c73e7" y="167.899137"/>
     <use style="stroke:#000000;" x="332.36898" xlink:href="#m45d14c73e7" y="97.999922"/>
     <use style="stroke:#000000;" x="243.700014" xlink:href="#m45d14c73e7" y="168.422217"/>
     <use style="stroke:#000000;" x="243.555146" xlink:href="#m45d14c73e7" y="168.431912"/>
     <use style="stroke:#000000;" x="332.689325" xlink:href="#m45d14c73e7" y="93.530279"/>
     <use style="stroke:#000000;" x="332.518644" xlink:href="#m45d14c73e7" y="92.229943"/>
     <use style="stroke:#000000;" x="331.082424" xlink:href="#m45d14c73e7" y="92.013196"/>
     <use style="stroke:#000000;" x="329.383966" xlink:href="#m45d14c73e7" y="92.050402"/>
     <use style="stroke:#000000;" x="327.69346" xlink:href="#m45d14c73e7" y="92.110902"/>
     <use style="stroke:#000000;" x="326.185652" xlink:href="#m45d14c73e7" y="92.034689"/>
     <use style="stroke:#000000;" x="243.688395" xlink:href="#m45d14c73e7" y="167.507658"/>
     <use style="stroke:#000000;" x="323.359021" xlink:href="#m45d14c73e7" y="91.779219"/>
     <use style="stroke:#000000;" x="242.458273" xlink:href="#m45d14c73e7" y="168.445828"/>
     <use style="stroke:#000000;" x="242.404957" xlink:href="#m45d14c73e7" y="168.391098"/>
     <use style="stroke:#000000;" x="242.769488" xlink:href="#m45d14c73e7" y="167.918512"/>
     <use style="stroke:#000000;" x="242.213971" xlink:href="#m45d14c73e7" y="168.367434"/>
     <use style="stroke:#000000;" x="315.721383" xlink:href="#m45d14c73e7" y="92.139776"/>
     <use style="stroke:#000000;" x="314.510716" xlink:href="#m45d14c73e7" y="91.963573"/>
     <use style="stroke:#000000;" x="313.222376" xlink:href="#m45d14c73e7" y="91.888719"/>
     <use style="stroke:#000000;" x="311.858804" xlink:href="#m45d14c73e7" y="91.917252"/>
     <use style="stroke:#000000;" x="310.739161" xlink:href="#m45d14c73e7" y="91.699451"/>
     <use style="stroke:#000000;" x="309.464709" xlink:href="#m45d14c73e7" y="91.672099"/>
     <use style="stroke:#000000;" x="308.195502" xlink:href="#m45d14c73e7" y="91.660634"/>
     <use style="stroke:#000000;" x="306.854876" xlink:href="#m45d14c73e7" y="91.754935"/>
     <use style="stroke:#000000;" x="241.255631" xlink:href="#m45d14c73e7" y="168.455263"/>
     <use style="stroke:#000000;" x="241.202443" xlink:href="#m45d14c73e7" y="168.411027"/>
     <use style="stroke:#000000;" x="241.148871" xlink:href="#m45d14c73e7" y="168.367257"/>
     <use style="stroke:#000000;" x="241.021264" xlink:href="#m45d14c73e7" y="168.416554"/>
     <use style="stroke:#000000;" x="300.918896" xlink:href="#m45d14c73e7" y="91.640394"/>
     <use style="stroke:#000000;" x="277.072042" xlink:href="#m45d14c73e7" y="121.210389"/>
     <use style="stroke:#000000;" x="298.536762" xlink:href="#m45d14c73e7" y="91.751241"/>
     <use style="stroke:#000000;" x="297.600895" xlink:href="#m45d14c73e7" y="91.495396"/>
     <use style="stroke:#000000;" x="296.526237" xlink:href="#m45d14c73e7" y="91.441003"/>
     <use style="stroke:#000000;" x="295.24921" xlink:href="#m45d14c73e7" y="91.687983"/>
     <use style="stroke:#000000;" x="294.252593" xlink:href="#m45d14c73e7" y="91.56318"/>
     <use style="stroke:#000000;" x="293.057268" xlink:href="#m45d14c73e7" y="91.741962"/>
     <use style="stroke:#000000;" x="292.001849" xlink:href="#m45d14c73e7" y="91.739054"/>
     <use style="stroke:#000000;" x="291.211957" xlink:href="#m45d14c73e7" y="91.353565"/>
     <use style="stroke:#000000;" x="240.219803" xlink:href="#m45d14c73e7" y="168.276451"/>
     <use style="stroke:#000000;" x="289.052676" xlink:href="#m45d14c73e7" y="91.503129"/>
     <use style="stroke:#000000;" x="240.047381" xlink:href="#m45d14c73e7" y="168.30689"/>
     <use style="stroke:#000000;" x="239.931122" xlink:href="#m45d14c73e7" y="168.374088"/>
     <use style="stroke:#000000;" x="286.008068" xlink:href="#m45d14c73e7" y="91.566883"/>
     <use style="stroke:#000000;" x="239.763096" xlink:href="#m45d14c73e7" y="168.411157"/>
     <use style="stroke:#000000;" x="284.138487" xlink:href="#m45d14c73e7" y="91.426822"/>
     <use style="stroke:#000000;" x="282.828843" xlink:href="#m45d14c73e7" y="92.041099"/>
     <use style="stroke:#000000;" x="293.120812" xlink:href="#m45d14c73e7" y="71.767975"/>
     <use style="stroke:#000000;" x="277.317229" xlink:href="#m45d14c73e7" y="98.725815"/>
     <use style="stroke:#000000;" x="280.209215" xlink:href="#m45d14c73e7" y="91.683476"/>
     <use style="stroke:#000000;" x="289.70111" xlink:href="#m45d14c73e7" y="71.676485"/>
     <use style="stroke:#000000;" x="288.532954" xlink:href="#m45d14c73e7" y="71.740289"/>
     <use style="stroke:#000000;" x="277.550359" xlink:href="#m45d14c73e7" y="91.511783"/>
     <use style="stroke:#000000;" x="276.616868" xlink:href="#m45d14c73e7" y="91.579128"/>
     <use style="stroke:#000000;" x="285.213086" xlink:href="#m45d14c73e7" y="71.686067"/>
     <use style="stroke:#000000;" x="275.063041" xlink:href="#m45d14c73e7" y="91.10016"/>
     <use style="stroke:#000000;" x="273.940994" xlink:href="#m45d14c73e7" y="91.625176"/>
     <use style="stroke:#000000;" x="238.999364" xlink:href="#m45d14c73e7" y="168.150685"/>
     <use style="stroke:#000000;" x="272.346847" xlink:href="#m45d14c73e7" y="91.303951"/>
     <use style="stroke:#000000;" x="238.79517" xlink:href="#m45d14c73e7" y="168.31993"/>
     <use style="stroke:#000000;" x="238.786173" xlink:href="#m45d14c73e7" y="168.187857"/>
     <use style="stroke:#000000;" x="277.823808" xlink:href="#m45d14c73e7" y="71.406456"/>
     <use style="stroke:#000000;" x="238.675122" xlink:href="#m45d14c73e7" y="168.14299"/>
     <use style="stroke:#000000;" x="268.088597" xlink:href="#m45d14c73e7" y="91.351162"/>
     <use style="stroke:#000000;" x="274.695761" xlink:href="#m45d14c73e7" y="71.459426"/>
     <use style="stroke:#000000;" x="266.470227" xlink:href="#m45d14c73e7" y="91.251334"/>
     <use style="stroke:#000000;" x="272.654122" xlink:href="#m45d14c73e7" y="71.471778"/>
     <use style="stroke:#000000;" x="264.781107" xlink:href="#m45d14c73e7" y="91.40627"/>
     <use style="stroke:#000000;" x="270.587182" xlink:href="#m45d14c73e7" y="71.635999"/>
     <use style="stroke:#000000;" x="269.614855" xlink:href="#m45d14c73e7" y="71.564544"/>
     <use style="stroke:#000000;" x="262.346371" xlink:href="#m45d14c73e7" y="91.475443"/>
     <use style="stroke:#000000;" x="267.639833" xlink:href="#m45d14c73e7" y="71.562104"/>
     <use style="stroke:#000000;" x="260.792102" xlink:href="#m45d14c73e7" y="91.371418"/>
     <use style="stroke:#000000;" x="259.967655" xlink:href="#m45d14c73e7" y="91.500839"/>
     <use style="stroke:#000000;" x="264.743996" xlink:href="#m45d14c73e7" y="71.457439"/>
     <use style="stroke:#000000;" x="258.453759" xlink:href="#m45d14c73e7" y="91.326558"/>
     <use style="stroke:#000000;" x="262.79269" xlink:href="#m45d14c73e7" y="71.54703"/>
     <use style="stroke:#000000;" x="261.893008" xlink:href="#m45d14c73e7" y="71.318541"/>
     <use style="stroke:#000000;" x="256.102433" xlink:href="#m45d14c73e7" y="91.461788"/>
     <use style="stroke:#000000;" x="237.623883" xlink:href="#m45d14c73e7" y="168.187225"/>
     <use style="stroke:#000000;" x="254.572864" xlink:href="#m45d14c73e7" y="91.47294"/>
     <use style="stroke:#000000;" x="237.488398" xlink:href="#m45d14c73e7" y="168.278377"/>
     <use style="stroke:#000000;" x="237.410221" xlink:href="#m45d14c73e7" y="168.382966"/>
     <use style="stroke:#000000;" x="252.347273" xlink:href="#m45d14c73e7" y="91.251699"/>
     <use style="stroke:#000000;" x="237.302785" xlink:href="#m45d14c73e7" y="168.362083"/>
     <use style="stroke:#000000;" x="250.850344" xlink:href="#m45d14c73e7" y="91.214919"/>
     <use style="stroke:#000000;" x="253.423036" xlink:href="#m45d14c73e7" y="71.368162"/>
     <use style="stroke:#000000;" x="248.228012" xlink:href="#m45d14c73e7" y="98.333571"/>
     <use style="stroke:#000000;" x="251.585042" xlink:href="#m45d14c73e7" y="71.316632"/>
     <use style="stroke:#000000;" x="250.66731" xlink:href="#m45d14c73e7" y="71.303122"/>
     <use style="stroke:#000000;" x="247.09419" xlink:href="#m45d14c73e7" y="91.474581"/>
     <use style="stroke:#000000;" x="248.82032" xlink:href="#m45d14c73e7" y="71.417969"/>
     <use style="stroke:#000000;" x="245.643043" xlink:href="#m45d14c73e7" y="91.296402"/>
     <use style="stroke:#000000;" x="247.006506" xlink:href="#m45d14c73e7" y="71.330391"/>
     <use style="stroke:#000000;" x="244.166326" xlink:href="#m45d14c73e7" y="91.379126"/>
     <use style="stroke:#000000;" x="243.430107" xlink:href="#m45d14c73e7" y="91.430294"/>
     <use style="stroke:#000000;" x="244.282824" xlink:href="#m45d14c73e7" y="71.317735"/>
     <use style="stroke:#000000;" x="241.978745" xlink:href="#m45d14c73e7" y="91.316069"/>
     <use style="stroke:#000000;" x="242.473096" xlink:href="#m45d14c73e7" y="71.30979"/>
     <use style="stroke:#000000;" x="241.565926" xlink:href="#m45d14c73e7" y="71.376786"/>
     <use style="stroke:#000000;" x="240.665567" xlink:href="#m45d14c73e7" y="71.333539"/>
     <use style="stroke:#000000;" x="236.378852" xlink:href="#m45d14c73e7" y="168.260896"/>
     <use style="stroke:#000000;" x="238.340456" xlink:href="#m45d14c73e7" y="91.259737"/>
     <use style="stroke:#000000;" x="236.267378" xlink:href="#m45d14c73e7" y="168.376332"/>
     <use style="stroke:#000000;" x="236.214723" xlink:href="#m45d14c73e7" y="168.257314"/>
     <use style="stroke:#000000;" x="236.16" xlink:href="#m45d14c73e7" y="168.493714"/>
    </g>
   </g>
   <g id="line2d_15">
    <defs>
     <path d="M -7.5 0 
L 7.5 0 
M 0 7.5 
L 0 -7.5 
" id="m22121709e0" style="stroke:#ff0000;"/>
    </defs>
    <g clip-path="url(#pbb8fbf5df2)">
     <use style="fill:#ff0000;stroke:#ff0000;" x="236.16" xlink:href="#m22121709e0" y="174.528"/>
    </g>
   </g>
   <g id="patch_3">
    <path d="M 369.216 174.528 
C 369.216 157.055246 365.774248 139.752393 359.087715 123.609673 
C 352.401182 107.466954 342.599903 92.798303 330.2448 80.4432 
C 317.889697 68.088097 303.221046 58.286818 287.078327 51.600285 
C 270.935607 44.913752 253.632754 41.472 236.16 41.472 
C 218.687246 41.472 201.384393 44.913752 185.241673 51.600285 
C 169.098954 58.286818 154.430303 68.088097 142.0752 80.4432 
C 129.720097 92.798303 119.918818 107.466954 113.232285 123.609673 
C 106.545752 139.752393 103.104 157.055246 103.104 174.528 
C 103.104 192.000754 106.545752 209.303607 113.232285 225.446327 
C 119.918818 241.589046 129.720097 256.257697 142.0752 268.6128 
C 154.430303 280.967903 169.098954 290.769182 185.241673 297.455715 
C 201.384393 304.142248 218.687246 307.584 236.16 307.584 
C 253.632754 307.584 270.935607 304.142248 287.078327 297.455715 
C 303.221046 290.769182 317.889697 280.967903 330.2448 268.6128 
C 342.599903 256.257697 352.401182 241.589046 359.087715 225.446327 
C 365.774248 209.303607 369.216 192.000754 369.216 174.528 
" style="fill:none;stroke:#000000;stroke-linecap:square;stroke-linejoin:miter;stroke-width:0.8;"/>
   </g>
  </g>
 </g>
 <defs>
  <clipPath id="pbb8fbf5df2">
   <path d="M 369.216 174.528 
C 369.216 157.055246 365.774248 139.752393 359.087715 123.609673 
C 352.401182 107.466954 342.599903 92.798303 330.2448 80.4432 
C 317.889697 68.088097 303.221046 58.286818 287.078327 51.600285 
C 270.935607 44.913752 253.632754 41.472 236.16 41.472 
C 218.687246 41.472 201.384393 44.913752 185.241673 51.600285 
C 169.098954 58.286818 154.430303 68.088097 142.0752 80.4432 
C 129.720097 92.798303 119.918818 107.466954 113.232285 123.609673 
C 106.545752 139.752393 103.104 157.055246 103.104 174.528 
C 103.104 192.000754 106.545752 209.303607 113.232285 225.446327 
C 119.918818 241.589046 129.720097 256.257697 142.0752 268.6128 
C 154.430303 280.967903 169.098954 290.769182 185.241673 297.455715 
C 201.384393 304.142248 218.687246 307.584 236.16 307.584 
C 253.632754 307.584 270.935607 304.142248 287.078327 297.455715 
C 303.221046 290.769182 317.889697 280.967903 330.2448 268.6128 
C 342.599903 256.257697 352.401182 241.589046 359.087715 225.446327 
C 365.774248 209.303607 369.216 192.000754 369.216 174.528 
M 236.16 174.528 
C 236.16 174.528 236.16 174.528 236.16 174.528 
C 236.16 174.528 236.16 174.528 236.16 174.528 
C 236.16 174.528 236.16 174.528 236.16 174.528 
C 236.16 174.528 236.16 174.528 236.16 174.528 
C 236.16 174.528 236.16 174.528 236.16 174.528 
C 236.16 174.528 236.16 174.528 236.16 174.528 
C 236.16 174.528 236.16 174.528 236.16 174.528 
C 236.16 174.528 236.16 174.528 236.16 174.528 
C 236.16 174.528 236.16 174.528 236.16 174.528 
C 236.16 174.528 236.16 174.528 236.16 174.528 
C 236.16 174.528 236.16 174.528 236.16 174.528 
C 236.16 174.528 236.16 174.528 236.16 174.528 
C 236.16 174.528 236.16 174.528 236.16 174.528 
C 236.16 174.528 236.16 174.528 236.16 174.528 
C 236.16 174.528 236.16 174.528 236.16 174.528 
C 236.16 174.528 236.16 174.528 236.16 174.528 
M 369.216 174.528 
z
"/>
  </clipPath>
 </defs>
</svg>
