<?xml version="1.0" encoding="utf-8" standalone="no"?>
<!DOCTYPE svg PUBLIC "-//W3C//DTD SVG 1.1//EN"
  "http://www.w3.org/Graphics/SVG/1.1/DTD/svg11.dtd">
<!-- Created with matplotlib (https://matplotlib.org/) -->
<svg height="345.6pt" version="1.1" viewBox="0 0 460.8 345.6" width="460.8pt" xmlns="http://www.w3.org/2000/svg" xmlns:xlink="http://www.w3.org/1999/xlink">
 <defs>
  <style type="text/css">
*{stroke-linecap:butt;stroke-linejoin:round;}
  </style>
 </defs>
 <g id="figure_1">
  <g id="patch_1">
   <path d="M 0 345.6 
L 460.8 345.6 
L 460.8 0 
L 0 0 
z
" style="fill:#ffffff;"/>
  </g>
  <g id="axes_1">
   <g id="patch_2">
    <path d="M 57.6 307.584 
L 414.72 307.584 
L 414.72 41.472 
L 57.6 41.472 
z
" style="fill:#ffffff;"/>
   </g>
   <g id="matplotlib.axis_1">
    <g id="xtick_1">
     <g id="line2d_1">
      <defs>
       <path d="M 0 0 
L 0 3.5 
" id="mc64fe77b96" style="stroke:#000000;stroke-width:0.8;"/>
      </defs>
      <g>
       <use style="stroke:#000000;stroke-width:0.8;" x="64.097042" xlink:href="#mc64fe77b96" y="307.584"/>
      </g>
     </g>
     <g id="text_1">
      <!-- −8 -->
      <defs>
       <path d="M 10.59375 35.5 
L 73.1875 35.5 
L 73.1875 27.203125 
L 10.59375 27.203125 
z
" id="DejaVuSans-8722"/>
       <path d="M 31.78125 34.625 
Q 24.75 34.625 20.71875 30.859375 
Q 16.703125 27.09375 16.703125 20.515625 
Q 16.703125 13.921875 20.71875 10.15625 
Q 24.75 6.390625 31.78125 6.390625 
Q 38.8125 6.390625 42.859375 10.171875 
Q 46.921875 13.96875 46.921875 20.515625 
Q 46.921875 27.09375 42.890625 30.859375 
Q 38.875 34.625 31.78125 34.625 
z
M 21.921875 38.8125 
Q 15.578125 40.375 12.03125 44.71875 
Q 8.5 49.078125 8.5 55.328125 
Q 8.5 64.0625 14.71875 69.140625 
Q 20.953125 74.21875 31.78125 74.21875 
Q 42.671875 74.21875 48.875 69.140625 
Q 55.078125 64.0625 55.078125 55.328125 
Q 55.078125 49.078125 51.53125 44.71875 
Q 48 40.375 41.703125 38.8125 
Q 48.828125 37.15625 52.796875 32.3125 
Q 56.78125 27.484375 56.78125 20.515625 
Q 56.78125 9.90625 50.3125 4.234375 
Q 43.84375 -1.421875 31.78125 -1.421875 
Q 19.734375 -1.421875 13.25 4.234375 
Q 6.78125 9.90625 6.78125 20.515625 
Q 6.78125 27.484375 10.78125 32.3125 
Q 14.796875 37.15625 21.921875 38.8125 
z
M 18.3125 54.390625 
Q 18.3125 48.734375 21.84375 45.5625 
Q 25.390625 42.390625 31.78125 42.390625 
Q 38.140625 42.390625 41.71875 45.5625 
Q 45.3125 48.734375 45.3125 54.390625 
Q 45.3125 60.0625 41.71875 63.234375 
Q 38.140625 66.40625 31.78125 66.40625 
Q 25.390625 66.40625 21.84375 63.234375 
Q 18.3125 60.0625 18.3125 54.390625 
z
" id="DejaVuSans-56"/>
      </defs>
      <g transform="translate(56.725948 322.182437)scale(0.1 -0.1)">
       <use xlink:href="#DejaVuSans-8722"/>
       <use x="83.789062" xlink:href="#DejaVuSans-56"/>
      </g>
     </g>
    </g>
    <g id="xtick_2">
     <g id="line2d_2">
      <g>
       <use style="stroke:#000000;stroke-width:0.8;" x="108.565827" xlink:href="#mc64fe77b96" y="307.584"/>
      </g>
     </g>
     <g id="text_2">
      <!-- −6 -->
      <defs>
       <path d="M 33.015625 40.375 
Q 26.375 40.375 22.484375 35.828125 
Q 18.609375 31.296875 18.609375 23.390625 
Q 18.609375 15.53125 22.484375 10.953125 
Q 26.375 6.390625 33.015625 6.390625 
Q 39.65625 6.390625 43.53125 10.953125 
Q 47.40625 15.53125 47.40625 23.390625 
Q 47.40625 31.296875 43.53125 35.828125 
Q 39.65625 40.375 33.015625 40.375 
z
M 52.59375 71.296875 
L 52.59375 62.3125 
Q 48.875 64.0625 45.09375 64.984375 
Q 41.3125 65.921875 37.59375 65.921875 
Q 27.828125 65.921875 22.671875 59.328125 
Q 17.53125 52.734375 16.796875 39.40625 
Q 19.671875 43.65625 24.015625 45.921875 
Q 28.375 48.1875 33.59375 48.1875 
Q 44.578125 48.1875 50.953125 41.515625 
Q 57.328125 34.859375 57.328125 23.390625 
Q 57.328125 12.15625 50.6875 5.359375 
Q 44.046875 -1.421875 33.015625 -1.421875 
Q 20.359375 -1.421875 13.671875 8.265625 
Q 6.984375 17.96875 6.984375 36.375 
Q 6.984375 53.65625 15.1875 63.9375 
Q 23.390625 74.21875 37.203125 74.21875 
Q 40.921875 74.21875 44.703125 73.484375 
Q 48.484375 72.75 52.59375 71.296875 
z
" id="DejaVuSans-54"/>
      </defs>
      <g transform="translate(101.194733 322.182437)scale(0.1 -0.1)">
       <use xlink:href="#DejaVuSans-8722"/>
       <use x="83.789062" xlink:href="#DejaVuSans-54"/>
      </g>
     </g>
    </g>
    <g id="xtick_3">
     <g id="line2d_3">
      <g>
       <use style="stroke:#000000;stroke-width:0.8;" x="153.034612" xlink:href="#mc64fe77b96" y="307.584"/>
      </g>
     </g>
     <g id="text_3">
      <!-- −4 -->
      <defs>
       <path d="M 37.796875 64.3125 
L 12.890625 25.390625 
L 37.796875 25.390625 
z
M 35.203125 72.90625 
L 47.609375 72.90625 
L 47.609375 25.390625 
L 58.015625 25.390625 
L 58.015625 17.1875 
L 47.609375 17.1875 
L 47.609375 0 
L 37.796875 0 
L 37.796875 17.1875 
L 4.890625 17.1875 
L 4.890625 26.703125 
z
" id="DejaVuSans-52"/>
      </defs>
      <g transform="translate(145.663518 322.182437)scale(0.1 -0.1)">
       <use xlink:href="#DejaVuSans-8722"/>
       <use x="83.789062" xlink:href="#DejaVuSans-52"/>
      </g>
     </g>
    </g>
    <g id="xtick_4">
     <g id="line2d_4">
      <g>
       <use style="stroke:#000000;stroke-width:0.8;" x="197.503397" xlink:href="#mc64fe77b96" y="307.584"/>
      </g>
     </g>
     <g id="text_4">
      <!-- −2 -->
      <defs>
       <path d="M 19.1875 8.296875 
L 53.609375 8.296875 
L 53.609375 0 
L 7.328125 0 
L 7.328125 8.296875 
Q 12.9375 14.109375 22.625 23.890625 
Q 32.328125 33.6875 34.8125 36.53125 
Q 39.546875 41.84375 41.421875 45.53125 
Q 43.3125 49.21875 43.3125 52.78125 
Q 43.3125 58.59375 39.234375 62.25 
Q 35.15625 65.921875 28.609375 65.921875 
Q 23.96875 65.921875 18.8125 64.3125 
Q 13.671875 62.703125 7.8125 59.421875 
L 7.8125 69.390625 
Q 13.765625 71.78125 18.9375 73 
Q 24.125 74.21875 28.421875 74.21875 
Q 39.75 74.21875 46.484375 68.546875 
Q 53.21875 62.890625 53.21875 53.421875 
Q 53.21875 48.921875 51.53125 44.890625 
Q 49.859375 40.875 45.40625 35.40625 
Q 44.1875 33.984375 37.640625 27.21875 
Q 31.109375 20.453125 19.1875 8.296875 
z
" id="DejaVuSans-50"/>
      </defs>
      <g transform="translate(190.132303 322.182437)scale(0.1 -0.1)">
       <use xlink:href="#DejaVuSans-8722"/>
       <use x="83.789062" xlink:href="#DejaVuSans-50"/>
      </g>
     </g>
    </g>
    <g id="xtick_5">
     <g id="line2d_5">
      <g>
       <use style="stroke:#000000;stroke-width:0.8;" x="241.972182" xlink:href="#mc64fe77b96" y="307.584"/>
      </g>
     </g>
     <g id="text_5">
      <!-- 0 -->
      <defs>
       <path d="M 31.78125 66.40625 
Q 24.171875 66.40625 20.328125 58.90625 
Q 16.5 51.421875 16.5 36.375 
Q 16.5 21.390625 20.328125 13.890625 
Q 24.171875 6.390625 31.78125 6.390625 
Q 39.453125 6.390625 43.28125 13.890625 
Q 47.125 21.390625 47.125 36.375 
Q 47.125 51.421875 43.28125 58.90625 
Q 39.453125 66.40625 31.78125 66.40625 
z
M 31.78125 74.21875 
Q 44.046875 74.21875 50.515625 64.515625 
Q 56.984375 54.828125 56.984375 36.375 
Q 56.984375 17.96875 50.515625 8.265625 
Q 44.046875 -1.421875 31.78125 -1.421875 
Q 19.53125 -1.421875 13.0625 8.265625 
Q 6.59375 17.96875 6.59375 36.375 
Q 6.59375 54.828125 13.0625 64.515625 
Q 19.53125 74.21875 31.78125 74.21875 
z
" id="DejaVuSans-48"/>
      </defs>
      <g transform="translate(238.790932 322.182437)scale(0.1 -0.1)">
       <use xlink:href="#DejaVuSans-48"/>
      </g>
     </g>
    </g>
    <g id="xtick_6">
     <g id="line2d_6">
      <g>
       <use style="stroke:#000000;stroke-width:0.8;" x="286.440967" xlink:href="#mc64fe77b96" y="307.584"/>
      </g>
     </g>
     <g id="text_6">
      <!-- 2 -->
      <g transform="translate(283.259717 322.182437)scale(0.1 -0.1)">
       <use xlink:href="#DejaVuSans-50"/>
      </g>
     </g>
    </g>
    <g id="xtick_7">
     <g id="line2d_7">
      <g>
       <use style="stroke:#000000;stroke-width:0.8;" x="330.909753" xlink:href="#mc64fe77b96" y="307.584"/>
      </g>
     </g>
     <g id="text_7">
      <!-- 4 -->
      <g transform="translate(327.728503 322.182437)scale(0.1 -0.1)">
       <use xlink:href="#DejaVuSans-52"/>
      </g>
     </g>
    </g>
    <g id="xtick_8">
     <g id="line2d_8">
      <g>
       <use style="stroke:#000000;stroke-width:0.8;" x="375.378538" xlink:href="#mc64fe77b96" y="307.584"/>
      </g>
     </g>
     <g id="text_8">
      <!-- 6 -->
      <g transform="translate(372.197288 322.182437)scale(0.1 -0.1)">
       <use xlink:href="#DejaVuSans-54"/>
      </g>
     </g>
    </g>
    <g id="text_9">
     <!-- x distance [m] -->
     <defs>
      <path d="M 54.890625 54.6875 
L 35.109375 28.078125 
L 55.90625 0 
L 45.3125 0 
L 29.390625 21.484375 
L 13.484375 0 
L 2.875 0 
L 24.125 28.609375 
L 4.6875 54.6875 
L 15.28125 54.6875 
L 29.78125 35.203125 
L 44.28125 54.6875 
z
" id="DejaVuSans-120"/>
      <path id="DejaVuSans-32"/>
      <path d="M 45.40625 46.390625 
L 45.40625 75.984375 
L 54.390625 75.984375 
L 54.390625 0 
L 45.40625 0 
L 45.40625 8.203125 
Q 42.578125 3.328125 38.25 0.953125 
Q 33.9375 -1.421875 27.875 -1.421875 
Q 17.96875 -1.421875 11.734375 6.484375 
Q 5.515625 14.40625 5.515625 27.296875 
Q 5.515625 40.1875 11.734375 48.09375 
Q 17.96875 56 27.875 56 
Q 33.9375 56 38.25 53.625 
Q 42.578125 51.265625 45.40625 46.390625 
z
M 14.796875 27.296875 
Q 14.796875 17.390625 18.875 11.75 
Q 22.953125 6.109375 30.078125 6.109375 
Q 37.203125 6.109375 41.296875 11.75 
Q 45.40625 17.390625 45.40625 27.296875 
Q 45.40625 37.203125 41.296875 42.84375 
Q 37.203125 48.484375 30.078125 48.484375 
Q 22.953125 48.484375 18.875 42.84375 
Q 14.796875 37.203125 14.796875 27.296875 
z
" id="DejaVuSans-100"/>
      <path d="M 9.421875 54.6875 
L 18.40625 54.6875 
L 18.40625 0 
L 9.421875 0 
z
M 9.421875 75.984375 
L 18.40625 75.984375 
L 18.40625 64.59375 
L 9.421875 64.59375 
z
" id="DejaVuSans-105"/>
      <path d="M 44.28125 53.078125 
L 44.28125 44.578125 
Q 40.484375 46.53125 36.375 47.5 
Q 32.28125 48.484375 27.875 48.484375 
Q 21.1875 48.484375 17.84375 46.4375 
Q 14.5 44.390625 14.5 40.28125 
Q 14.5 37.15625 16.890625 35.375 
Q 19.28125 33.59375 26.515625 31.984375 
L 29.59375 31.296875 
Q 39.15625 29.25 43.1875 25.515625 
Q 47.21875 21.78125 47.21875 15.09375 
Q 47.21875 7.46875 41.1875 3.015625 
Q 35.15625 -1.421875 24.609375 -1.421875 
Q 20.21875 -1.421875 15.453125 -0.5625 
Q 10.6875 0.296875 5.421875 2 
L 5.421875 11.28125 
Q 10.40625 8.6875 15.234375 7.390625 
Q 20.0625 6.109375 24.8125 6.109375 
Q 31.15625 6.109375 34.5625 8.28125 
Q 37.984375 10.453125 37.984375 14.40625 
Q 37.984375 18.0625 35.515625 20.015625 
Q 33.0625 21.96875 24.703125 23.78125 
L 21.578125 24.515625 
Q 13.234375 26.265625 9.515625 29.90625 
Q 5.8125 33.546875 5.8125 39.890625 
Q 5.8125 47.609375 11.28125 51.796875 
Q 16.75 56 26.8125 56 
Q 31.78125 56 36.171875 55.265625 
Q 40.578125 54.546875 44.28125 53.078125 
z
" id="DejaVuSans-115"/>
      <path d="M 18.3125 70.21875 
L 18.3125 54.6875 
L 36.8125 54.6875 
L 36.8125 47.703125 
L 18.3125 47.703125 
L 18.3125 18.015625 
Q 18.3125 11.328125 20.140625 9.421875 
Q 21.96875 7.515625 27.59375 7.515625 
L 36.8125 7.515625 
L 36.8125 0 
L 27.59375 0 
Q 17.1875 0 13.234375 3.875 
Q 9.28125 7.765625 9.28125 18.015625 
L 9.28125 47.703125 
L 2.6875 47.703125 
L 2.6875 54.6875 
L 9.28125 54.6875 
L 9.28125 70.21875 
z
" id="DejaVuSans-116"/>
      <path d="M 34.28125 27.484375 
Q 23.390625 27.484375 19.1875 25 
Q 14.984375 22.515625 14.984375 16.5 
Q 14.984375 11.71875 18.140625 8.90625 
Q 21.296875 6.109375 26.703125 6.109375 
Q 34.1875 6.109375 38.703125 11.40625 
Q 43.21875 16.703125 43.21875 25.484375 
L 43.21875 27.484375 
z
M 52.203125 31.203125 
L 52.203125 0 
L 43.21875 0 
L 43.21875 8.296875 
Q 40.140625 3.328125 35.546875 0.953125 
Q 30.953125 -1.421875 24.3125 -1.421875 
Q 15.921875 -1.421875 10.953125 3.296875 
Q 6 8.015625 6 15.921875 
Q 6 25.140625 12.171875 29.828125 
Q 18.359375 34.515625 30.609375 34.515625 
L 43.21875 34.515625 
L 43.21875 35.40625 
Q 43.21875 41.609375 39.140625 45 
Q 35.0625 48.390625 27.6875 48.390625 
Q 23 48.390625 18.546875 47.265625 
Q 14.109375 46.140625 10.015625 43.890625 
L 10.015625 52.203125 
Q 14.9375 54.109375 19.578125 55.046875 
Q 24.21875 56 28.609375 56 
Q 40.484375 56 46.34375 49.84375 
Q 52.203125 43.703125 52.203125 31.203125 
z
" id="DejaVuSans-97"/>
      <path d="M 54.890625 33.015625 
L 54.890625 0 
L 45.90625 0 
L 45.90625 32.71875 
Q 45.90625 40.484375 42.875 44.328125 
Q 39.84375 48.1875 33.796875 48.1875 
Q 26.515625 48.1875 22.3125 43.546875 
Q 18.109375 38.921875 18.109375 30.90625 
L 18.109375 0 
L 9.078125 0 
L 9.078125 54.6875 
L 18.109375 54.6875 
L 18.109375 46.1875 
Q 21.34375 51.125 25.703125 53.5625 
Q 30.078125 56 35.796875 56 
Q 45.21875 56 50.046875 50.171875 
Q 54.890625 44.34375 54.890625 33.015625 
z
" id="DejaVuSans-110"/>
      <path d="M 48.78125 52.59375 
L 48.78125 44.1875 
Q 44.96875 46.296875 41.140625 47.34375 
Q 37.3125 48.390625 33.40625 48.390625 
Q 24.65625 48.390625 19.8125 42.84375 
Q 14.984375 37.3125 14.984375 27.296875 
Q 14.984375 17.28125 19.8125 11.734375 
Q 24.65625 6.203125 33.40625 6.203125 
Q 37.3125 6.203125 41.140625 7.25 
Q 44.96875 8.296875 48.78125 10.40625 
L 48.78125 2.09375 
Q 45.015625 0.34375 40.984375 -0.53125 
Q 36.96875 -1.421875 32.421875 -1.421875 
Q 20.0625 -1.421875 12.78125 6.34375 
Q 5.515625 14.109375 5.515625 27.296875 
Q 5.515625 40.671875 12.859375 48.328125 
Q 20.21875 56 33.015625 56 
Q 37.15625 56 41.109375 55.140625 
Q 45.0625 54.296875 48.78125 52.59375 
z
" id="DejaVuSans-99"/>
      <path d="M 56.203125 29.59375 
L 56.203125 25.203125 
L 14.890625 25.203125 
Q 15.484375 15.921875 20.484375 11.0625 
Q 25.484375 6.203125 34.421875 6.203125 
Q 39.59375 6.203125 44.453125 7.46875 
Q 49.3125 8.734375 54.109375 11.28125 
L 54.109375 2.78125 
Q 49.265625 0.734375 44.1875 -0.34375 
Q 39.109375 -1.421875 33.890625 -1.421875 
Q 20.796875 -1.421875 13.15625 6.1875 
Q 5.515625 13.8125 5.515625 26.8125 
Q 5.515625 40.234375 12.765625 48.109375 
Q 20.015625 56 32.328125 56 
Q 43.359375 56 49.78125 48.890625 
Q 56.203125 41.796875 56.203125 29.59375 
z
M 47.21875 32.234375 
Q 47.125 39.59375 43.09375 43.984375 
Q 39.0625 48.390625 32.421875 48.390625 
Q 24.90625 48.390625 20.390625 44.140625 
Q 15.875 39.890625 15.1875 32.171875 
z
" id="DejaVuSans-101"/>
      <path d="M 8.59375 75.984375 
L 29.296875 75.984375 
L 29.296875 69 
L 17.578125 69 
L 17.578125 -6.203125 
L 29.296875 -6.203125 
L 29.296875 -13.1875 
L 8.59375 -13.1875 
z
" id="DejaVuSans-91"/>
      <path d="M 52 44.1875 
Q 55.375 50.25 60.0625 53.125 
Q 64.75 56 71.09375 56 
Q 79.640625 56 84.28125 50.015625 
Q 88.921875 44.046875 88.921875 33.015625 
L 88.921875 0 
L 79.890625 0 
L 79.890625 32.71875 
Q 79.890625 40.578125 77.09375 44.375 
Q 74.3125 48.1875 68.609375 48.1875 
Q 61.625 48.1875 57.5625 43.546875 
Q 53.515625 38.921875 53.515625 30.90625 
L 53.515625 0 
L 44.484375 0 
L 44.484375 32.71875 
Q 44.484375 40.625 41.703125 44.40625 
Q 38.921875 48.1875 33.109375 48.1875 
Q 26.21875 48.1875 22.15625 43.53125 
Q 18.109375 38.875 18.109375 30.90625 
L 18.109375 0 
L 9.078125 0 
L 9.078125 54.6875 
L 18.109375 54.6875 
L 18.109375 46.1875 
Q 21.1875 51.21875 25.484375 53.609375 
Q 29.78125 56 35.6875 56 
Q 41.65625 56 45.828125 52.96875 
Q 50 49.953125 52 44.1875 
z
" id="DejaVuSans-109"/>
      <path d="M 30.421875 75.984375 
L 30.421875 -13.1875 
L 9.71875 -13.1875 
L 9.71875 -6.203125 
L 21.390625 -6.203125 
L 21.390625 69 
L 9.71875 69 
L 9.71875 75.984375 
z
" id="DejaVuSans-93"/>
     </defs>
     <g transform="translate(200.063906 335.860562)scale(0.1 -0.1)">
      <use xlink:href="#DejaVuSans-120"/>
      <use x="59.179688" xlink:href="#DejaVuSans-32"/>
      <use x="90.966797" xlink:href="#DejaVuSans-100"/>
      <use x="154.443359" xlink:href="#DejaVuSans-105"/>
      <use x="182.226562" xlink:href="#DejaVuSans-115"/>
      <use x="234.326172" xlink:href="#DejaVuSans-116"/>
      <use x="273.535156" xlink:href="#DejaVuSans-97"/>
      <use x="334.814453" xlink:href="#DejaVuSans-110"/>
      <use x="398.193359" xlink:href="#DejaVuSans-99"/>
      <use x="453.173828" xlink:href="#DejaVuSans-101"/>
      <use x="514.697266" xlink:href="#DejaVuSans-32"/>
      <use x="546.484375" xlink:href="#DejaVuSans-91"/>
      <use x="585.498047" xlink:href="#DejaVuSans-109"/>
      <use x="682.910156" xlink:href="#DejaVuSans-93"/>
     </g>
    </g>
   </g>
   <g id="matplotlib.axis_2">
    <g id="ytick_1">
     <g id="line2d_9">
      <defs>
       <path d="M 0 0 
L -3.5 0 
" id="m37bb81120e" style="stroke:#000000;stroke-width:0.8;"/>
      </defs>
      <g>
       <use style="stroke:#000000;stroke-width:0.8;" x="57.6" xlink:href="#m37bb81120e" y="294.739692"/>
      </g>
     </g>
     <g id="text_10">
      <!-- −10 -->
      <defs>
       <path d="M 12.40625 8.296875 
L 28.515625 8.296875 
L 28.515625 63.921875 
L 10.984375 60.40625 
L 10.984375 69.390625 
L 28.421875 72.90625 
L 38.28125 72.90625 
L 38.28125 8.296875 
L 54.390625 8.296875 
L 54.390625 0 
L 12.40625 0 
z
" id="DejaVuSans-49"/>
      </defs>
      <g transform="translate(29.495313 298.538911)scale(0.1 -0.1)">
       <use xlink:href="#DejaVuSans-8722"/>
       <use x="83.789062" xlink:href="#DejaVuSans-49"/>
       <use x="147.412109" xlink:href="#DejaVuSans-48"/>
      </g>
     </g>
    </g>
    <g id="ytick_2">
     <g id="line2d_10">
      <g>
       <use style="stroke:#000000;stroke-width:0.8;" x="57.6" xlink:href="#m37bb81120e" y="252.656506"/>
      </g>
     </g>
     <g id="text_11">
      <!-- −8 -->
      <g transform="translate(35.857813 256.455725)scale(0.1 -0.1)">
       <use xlink:href="#DejaVuSans-8722"/>
       <use x="83.789062" xlink:href="#DejaVuSans-56"/>
      </g>
     </g>
    </g>
    <g id="ytick_3">
     <g id="line2d_11">
      <g>
       <use style="stroke:#000000;stroke-width:0.8;" x="57.6" xlink:href="#m37bb81120e" y="210.573321"/>
      </g>
     </g>
     <g id="text_12">
      <!-- −6 -->
      <g transform="translate(35.857813 214.37254)scale(0.1 -0.1)">
       <use xlink:href="#DejaVuSans-8722"/>
       <use x="83.789062" xlink:href="#DejaVuSans-54"/>
      </g>
     </g>
    </g>
    <g id="ytick_4">
     <g id="line2d_12">
      <g>
       <use style="stroke:#000000;stroke-width:0.8;" x="57.6" xlink:href="#m37bb81120e" y="168.490135"/>
      </g>
     </g>
     <g id="text_13">
      <!-- −4 -->
      <g transform="translate(35.857813 172.289354)scale(0.1 -0.1)">
       <use xlink:href="#DejaVuSans-8722"/>
       <use x="83.789062" xlink:href="#DejaVuSans-52"/>
      </g>
     </g>
    </g>
    <g id="ytick_5">
     <g id="line2d_13">
      <g>
       <use style="stroke:#000000;stroke-width:0.8;" x="57.6" xlink:href="#m37bb81120e" y="126.40695"/>
      </g>
     </g>
     <g id="text_14">
      <!-- −2 -->
      <g transform="translate(35.857813 130.206169)scale(0.1 -0.1)">
       <use xlink:href="#DejaVuSans-8722"/>
       <use x="83.789062" xlink:href="#DejaVuSans-50"/>
      </g>
     </g>
    </g>
    <g id="ytick_6">
     <g id="line2d_14">
      <g>
       <use style="stroke:#000000;stroke-width:0.8;" x="57.6" xlink:href="#m37bb81120e" y="84.323764"/>
      </g>
     </g>
     <g id="text_15">
      <!-- 0 -->
      <g transform="translate(44.2375 88.122983)scale(0.1 -0.1)">
       <use xlink:href="#DejaVuSans-48"/>
      </g>
     </g>
    </g>
    <g id="ytick_7">
     <g id="line2d_15">
      <g>
       <use style="stroke:#000000;stroke-width:0.8;" x="57.6" xlink:href="#m37bb81120e" y="42.240579"/>
      </g>
     </g>
     <g id="text_16">
      <!-- 2 -->
      <g transform="translate(44.2375 46.039798)scale(0.1 -0.1)">
       <use xlink:href="#DejaVuSans-50"/>
      </g>
     </g>
    </g>
    <g id="text_17">
     <!-- y distance [m] -->
     <defs>
      <path d="M 32.171875 -5.078125 
Q 28.375 -14.84375 24.75 -17.8125 
Q 21.140625 -20.796875 15.09375 -20.796875 
L 7.90625 -20.796875 
L 7.90625 -13.28125 
L 13.1875 -13.28125 
Q 16.890625 -13.28125 18.9375 -11.515625 
Q 21 -9.765625 23.484375 -3.21875 
L 25.09375 0.875 
L 2.984375 54.6875 
L 12.5 54.6875 
L 29.59375 11.921875 
L 46.6875 54.6875 
L 56.203125 54.6875 
z
" id="DejaVuSans-121"/>
     </defs>
     <g transform="translate(23.415625 210.624094)rotate(-90)scale(0.1 -0.1)">
      <use xlink:href="#DejaVuSans-121"/>
      <use x="59.179688" xlink:href="#DejaVuSans-32"/>
      <use x="90.966797" xlink:href="#DejaVuSans-100"/>
      <use x="154.443359" xlink:href="#DejaVuSans-105"/>
      <use x="182.226562" xlink:href="#DejaVuSans-115"/>
      <use x="234.326172" xlink:href="#DejaVuSans-116"/>
      <use x="273.535156" xlink:href="#DejaVuSans-97"/>
      <use x="334.814453" xlink:href="#DejaVuSans-110"/>
      <use x="398.193359" xlink:href="#DejaVuSans-99"/>
      <use x="453.173828" xlink:href="#DejaVuSans-101"/>
      <use x="514.697266" xlink:href="#DejaVuSans-32"/>
      <use x="546.484375" xlink:href="#DejaVuSans-91"/>
      <use x="585.498047" xlink:href="#DejaVuSans-109"/>
      <use x="682.910156" xlink:href="#DejaVuSans-93"/>
     </g>
    </g>
   </g>
   <g id="line2d_16">
    <defs>
     <path d="M 0 0.75 
C 0.198902 0.75 0.389685 0.670975 0.53033 0.53033 
C 0.670975 0.389685 0.75 0.198902 0.75 0 
C 0.75 -0.198902 0.670975 -0.389685 0.53033 -0.53033 
C 0.389685 -0.670975 0.198902 -0.75 0 -0.75 
C -0.198902 -0.75 -0.389685 -0.670975 -0.53033 -0.53033 
C -0.670975 -0.389685 -0.75 -0.198902 -0.75 0 
C -0.75 0.198902 -0.670975 0.389685 -0.53033 0.53033 
C -0.389685 0.670975 -0.198902 0.75 0 0.75 
z
" id="m53c091cbb6" style="stroke:#000000;"/>
    </defs>
    <g clip-path="url(#p4665428299)">
     <use style="stroke:#000000;" x="249.113369" xlink:href="#m53c091cbb6" y="53.568"/>
     <use style="stroke:#000000;" x="248.954912" xlink:href="#m53c091cbb6" y="53.719271"/>
     <use style="stroke:#000000;" x="248.637915" xlink:href="#m53c091cbb6" y="53.725677"/>
     <use style="stroke:#000000;" x="248.642213" xlink:href="#m53c091cbb6" y="54.025708"/>
     <use style="stroke:#000000;" x="248.487995" xlink:href="#m53c091cbb6" y="54.180853"/>
     <use style="stroke:#000000;" x="248.335213" xlink:href="#m53c091cbb6" y="54.337264"/>
     <use style="stroke:#000000;" x="248.183879" xlink:href="#m53c091cbb6" y="54.494932"/>
     <use style="stroke:#000000;" x="248.034005" xlink:href="#m53c091cbb6" y="54.653843"/>
     <use style="stroke:#000000;" x="247.885602" xlink:href="#m53c091cbb6" y="54.813986"/>
     <use style="stroke:#000000;" x="247.738682" xlink:href="#m53c091cbb6" y="54.975349"/>
     <use style="stroke:#000000;" x="247.593255" xlink:href="#m53c091cbb6" y="55.137918"/>
     <use style="stroke:#000000;" x="247.277766" xlink:href="#m53c091cbb6" y="55.167842"/>
     <use style="stroke:#000000;" x="247.306926" xlink:href="#m53c091cbb6" y="55.466629"/>
     <use style="stroke:#000000;" x="246.992037" xlink:href="#m53c091cbb6" y="55.501759"/>
     <use style="stroke:#000000;" x="246.851493" xlink:href="#m53c091cbb6" y="55.670475"/>
     <use style="stroke:#000000;" x="246.888906" xlink:href="#m53c091cbb6" y="55.968438"/>
     <use style="stroke:#000000;" x="246.752669" xlink:href="#m53c091cbb6" y="56.137987"/>
     <use style="stroke:#000000;" x="246.618001" xlink:href="#m53c091cbb6" y="56.308656"/>
     <use style="stroke:#000000;" x="246.484911" xlink:href="#m53c091cbb6" y="56.480429"/>
     <use style="stroke:#000000;" x="246.172397" xlink:href="#m53c091cbb6" y="56.531107"/>
     <use style="stroke:#000000;" x="245.859242" xlink:href="#m53c091cbb6" y="56.585862"/>
     <use style="stroke:#000000;" x="245.728737" xlink:href="#m53c091cbb6" y="56.763892"/>
     <use style="stroke:#000000;" x="245.59988" xlink:href="#m53c091cbb6" y="56.942992"/>
     <use style="stroke:#000000;" x="245.472678" xlink:href="#m53c091cbb6" y="57.12315"/>
     <use style="stroke:#000000;" x="245.160669" xlink:href="#m53c091cbb6" y="57.189751"/>
     <use style="stroke:#000000;" x="245.03576" xlink:href="#m53c091cbb6" y="57.373526"/>
     <use style="stroke:#000000;" x="244.723992" xlink:href="#m53c091cbb6" y="57.446823"/>
     <use style="stroke:#000000;" x="244.601469" xlink:href="#m53c091cbb6" y="57.634195"/>
     <use style="stroke:#000000;" x="244.290094" xlink:href="#m53c091cbb6" y="57.714199"/>
     <use style="stroke:#000000;" x="244.361632" xlink:href="#m53c091cbb6" y="58.011939"/>
     <use style="stroke:#000000;" x="244.051779" xlink:href="#m53c091cbb6" y="58.097074"/>
     <use style="stroke:#000000;" x="243.935278" xlink:href="#m53c091cbb6" y="58.289972"/>
     <use style="stroke:#000000;" x="243.820561" xlink:href="#m53c091cbb6" y="58.483826"/>
     <use style="stroke:#000000;" x="243.512236" xlink:href="#m53c091cbb6" y="58.578217"/>
     <use style="stroke:#000000;" x="243.400193" xlink:href="#m53c091cbb6" y="58.775553"/>
     <use style="stroke:#000000;" x="243.289973" xlink:href="#m53c091cbb6" y="58.973807"/>
     <use style="stroke:#000000;" x="243.181586" xlink:href="#m53c091cbb6" y="59.172964"/>
     <use style="stroke:#000000;" x="242.876057" xlink:href="#m53c091cbb6" y="59.279121"/>
     <use style="stroke:#000000;" x="242.770501" xlink:href="#m53c091cbb6" y="59.481684"/>
     <use style="stroke:#000000;" x="242.466133" xlink:href="#m53c091cbb6" y="59.594525"/>
     <use style="stroke:#000000;" x="242.363501" xlink:href="#m53c091cbb6" y="59.800461"/>
     <use style="stroke:#000000;" x="242.262772" xlink:href="#m53c091cbb6" y="60.007238"/>
     <use style="stroke:#000000;" x="241.960832" xlink:href="#m53c091cbb6" y="60.129254"/>
     <use style="stroke:#000000;" x="241.659248" xlink:href="#m53c091cbb6" y="60.25544"/>
     <use style="stroke:#000000;" x="241.562741" xlink:href="#m53c091cbb6" y="60.468015"/>
     <use style="stroke:#000000;" x="241.468199" xlink:href="#m53c091cbb6" y="60.681379"/>
     <use style="stroke:#000000;" x="241.169473" xlink:href="#m53c091cbb6" y="60.816692"/>
     <use style="stroke:#000000;" x="241.078161" xlink:href="#m53c091cbb6" y="61.03329"/>
     <use style="stroke:#000000;" x="240.781273" xlink:href="#m53c091cbb6" y="61.175228"/>
     <use style="stroke:#000000;" x="240.693281" xlink:href="#m53c091cbb6" y="61.395018"/>
     <use style="stroke:#000000;" x="240.398385" xlink:href="#m53c091cbb6" y="61.543561"/>
     <use style="stroke:#000000;" x="240.313804" xlink:href="#m53c091cbb6" y="61.766499"/>
     <use style="stroke:#000000;" x="240.021052" xlink:href="#m53c091cbb6" y="61.921623"/>
     <use style="stroke:#000000;" x="239.729118" xlink:href="#m53c091cbb6" y="62.080897"/>
     <use style="stroke:#000000;" x="239.649518" xlink:href="#m53c091cbb6" y="62.309343"/>
     <use style="stroke:#000000;" x="239.359974" xlink:href="#m53c091cbb6" y="62.475163"/>
     <use style="stroke:#000000;" x="239.284024" xlink:href="#m53c091cbb6" y="62.706642"/>
     <use style="stroke:#000000;" x="238.997023" xlink:href="#m53c091cbb6" y="62.878978"/>
     <use style="stroke:#000000;" x="238.711079" xlink:href="#m53c091cbb6" y="63.05544"/>
     <use style="stroke:#000000;" x="238.640504" xlink:href="#m53c091cbb6" y="63.292255"/>
     <use style="stroke:#000000;" x="238.357348" xlink:href="#m53c091cbb6" y="63.475185"/>
     <use style="stroke:#000000;" x="238.290657" xlink:href="#m53c091cbb6" y="63.714905"/>
     <use style="stroke:#000000;" x="238.226179" xlink:href="#m53c091cbb6" y="63.955168"/>
     <use style="stroke:#000000;" x="237.947719" xlink:href="#m53c091cbb6" y="64.146833"/>
     <use style="stroke:#000000;" x="237.670591" xlink:href="#m53c091cbb6" y="64.342577"/>
     <use style="stroke:#000000;" x="237.611925" xlink:href="#m53c091cbb6" y="64.587937"/>
     <use style="stroke:#000000;" x="237.338038" xlink:href="#m53c091cbb6" y="64.790023"/>
     <use style="stroke:#000000;" x="237.06563" xlink:href="#m53c091cbb6" y="64.996161"/>
     <use style="stroke:#000000;" x="236.794755" xlink:href="#m53c091cbb6" y="65.206342"/>
     <use style="stroke:#000000;" x="236.306845" xlink:href="#m53c091cbb6" y="65.382211"/>
     <use style="stroke:#000000;" x="236.257818" xlink:href="#m53c091cbb6" y="65.638793"/>
     <use style="stroke:#000000;" x="235.991863" xlink:href="#m53c091cbb6" y="65.861041"/>
     <use style="stroke:#000000;" x="235.50805" xlink:href="#m53c091cbb6" y="66.054373"/>
     <use style="stroke:#000000;" x="235.245349" xlink:href="#m53c091cbb6" y="66.286425"/>
     <use style="stroke:#000000;" x="234.98452" xlink:href="#m53c091cbb6" y="66.522455"/>
     <use style="stroke:#000000;" x="234.946057" xlink:href="#m53c091cbb6" y="66.789913"/>
     <use style="stroke:#000000;" x="234.689375" xlink:href="#m53c091cbb6" y="67.032036"/>
     <use style="stroke:#000000;" x="234.434707" xlink:href="#m53c091cbb6" y="67.278093"/>
     <use style="stroke:#000000;" x="233.960982" xlink:href="#m53c091cbb6" y="67.506075"/>
     <use style="stroke:#000000;" x="233.710307" xlink:href="#m53c091cbb6" y="67.761782"/>
     <use style="stroke:#000000;" x="233.461823" xlink:href="#m53c091cbb6" y="68.021377"/>
     <use style="stroke:#000000;" x="233.215582" xlink:href="#m53c091cbb6" y="68.284845"/>
     <use style="stroke:#000000;" x="232.971635" xlink:href="#m53c091cbb6" y="68.552167"/>
     <use style="stroke:#000000;" x="232.730036" xlink:href="#m53c091cbb6" y="68.823326"/>
     <use style="stroke:#000000;" x="232.490837" xlink:href="#m53c091cbb6" y="69.098303"/>
     <use style="stroke:#000000;" x="232.254089" xlink:href="#m53c091cbb6" y="69.37708"/>
     <use style="stroke:#000000;" x="232.019845" xlink:href="#m53c091cbb6" y="69.659635"/>
     <use style="stroke:#000000;" x="231.788155" xlink:href="#m53c091cbb6" y="69.94595"/>
     <use style="stroke:#000000;" x="231.336763" xlink:href="#m53c091cbb6" y="70.232331"/>
     <use style="stroke:#000000;" x="231.110313" xlink:href="#m53c091cbb6" y="70.527936"/>
     <use style="stroke:#000000;" x="230.664245" xlink:href="#m53c091cbb6" y="70.827237"/>
     <use style="stroke:#000000;" x="230.443307" xlink:href="#m53c091cbb6" y="71.132047"/>
     <use style="stroke:#000000;" x="230.002902" xlink:href="#m53c091cbb6" y="71.444178"/>
     <use style="stroke:#000000;" x="229.787746" xlink:href="#m53c091cbb6" y="71.758097"/>
     <use style="stroke:#000000;" x="229.575551" xlink:href="#m53c091cbb6" y="72.075617"/>
     <use style="stroke:#000000;" x="229.366369" xlink:href="#m53c091cbb6" y="72.396712"/>
     <use style="stroke:#000000;" x="228.938209" xlink:href="#m53c091cbb6" y="72.732369"/>
     <use style="stroke:#000000;" x="226.737947" xlink:href="#m53c091cbb6" y="73.177979"/>
     <use style="stroke:#000000;" x="224.986752" xlink:href="#m53c091cbb6" y="73.630711"/>
     <use style="stroke:#000000;" x="223.905924" xlink:href="#m53c091cbb6" y="74.06301"/>
     <use style="stroke:#000000;" x="223.494421" xlink:href="#m53c091cbb6" y="74.458351"/>
     <use style="stroke:#000000;" x="223.086933" xlink:href="#m53c091cbb6" y="74.860732"/>
     <use style="stroke:#000000;" x="222.683561" xlink:href="#m53c091cbb6" y="75.270117"/>
     <use style="stroke:#000000;" x="222.063486" xlink:href="#m53c091cbb6" y="75.710288"/>
     <use style="stroke:#000000;" x="221.448178" xlink:href="#m53c091cbb6" y="76.161034"/>
     <use style="stroke:#000000;" x="221.278669" xlink:href="#m53c091cbb6" y="76.567378"/>
     <use style="stroke:#000000;" x="220.672814" xlink:href="#m53c091cbb6" y="77.035496"/>
     <use style="stroke:#000000;" x="220.072134" xlink:href="#m53c091cbb6" y="77.51405"/>
     <use style="stroke:#000000;" x="219.476775" xlink:href="#m53c091cbb6" y="78.002991"/>
     <use style="stroke:#000000;" x="219.106178" xlink:href="#m53c091cbb6" y="78.467539"/>
     <use style="stroke:#000000;" x="218.302604" xlink:href="#m53c091cbb6" y="79.011826"/>
     <use style="stroke:#000000;" x="217.942702" xlink:href="#m53c091cbb6" y="79.493265"/>
     <use style="stroke:#000000;" x="217.587977" xlink:href="#m53c091cbb6" y="79.981267"/>
     <use style="stroke:#000000;" x="216.802762" xlink:href="#m53c091cbb6" y="80.559681"/>
     <use style="stroke:#000000;" x="216.241976" xlink:href="#m53c091cbb6" y="81.108001"/>
     <use style="stroke:#000000;" x="215.470429" xlink:href="#m53c091cbb6" y="81.711857"/>
     <use style="stroke:#000000;" x="214.922839" xlink:href="#m53c091cbb6" y="82.281892"/>
     <use style="stroke:#000000;" x="214.165659" xlink:href="#m53c091cbb6" y="82.910911"/>
     <use style="stroke:#000000;" x="213.416153" xlink:href="#m53c091cbb6" y="83.553292"/>
     <use style="stroke:#000000;" x="212.674509" xlink:href="#m53c091cbb6" y="84.208958"/>
     <use style="stroke:#000000;" x="212.370451" xlink:href="#m53c091cbb6" y="84.768908"/>
     <use style="stroke:#000000;" x="213.143876" xlink:href="#m53c091cbb6" y="85.053734"/>
     <use style="stroke:#000000;" x="213.277126" xlink:href="#m53c091cbb6" y="85.500855"/>
     <use style="stroke:#000000;" x="213.627681" xlink:href="#m53c091cbb6" y="85.887098"/>
     <use style="stroke:#000000;" x="213.768597" xlink:href="#m53c091cbb6" y="86.330193"/>
     <use style="stroke:#000000;" x="213.489487" xlink:href="#m53c091cbb6" y="86.898653"/>
     <use style="stroke:#000000;" x="212.370967" xlink:href="#m53c091cbb6" y="87.732983"/>
     <use style="stroke:#000000;" x="211.263828" xlink:href="#m53c091cbb6" y="88.586981"/>
     <use style="stroke:#000000;" x="210.378578" xlink:href="#m53c091cbb6" y="89.392018"/>
     <use style="stroke:#000000;" x="209.713575" xlink:href="#m53c091cbb6" y="90.142764"/>
     <use style="stroke:#000000;" x="208.849208" xlink:href="#m53c091cbb6" y="90.977853"/>
     <use style="stroke:#000000;" x="207.579405" xlink:href="#m53c091cbb6" y="91.976041"/>
     <use style="stroke:#000000;" x="206.946395" xlink:href="#m53c091cbb6" y="92.770478"/>
     <use style="stroke:#000000;" x="205.496057" xlink:href="#m53c091cbb6" y="93.885428"/>
     <use style="stroke:#000000;" x="204.474115" xlink:href="#m53c091cbb6" y="94.868311"/>
     <use style="stroke:#000000;" x="203.260264" xlink:href="#m53c091cbb6" y="95.950316"/>
     <use style="stroke:#000000;" x="202.266358" xlink:href="#m53c091cbb6" y="96.971942"/>
     <use style="stroke:#000000;" x="201.082603" xlink:href="#m53c091cbb6" y="98.095763"/>
     <use style="stroke:#000000;" x="199.711605" xlink:href="#m53c091cbb6" y="99.326665"/>
     <use style="stroke:#000000;" x="198.358386" xlink:href="#m53c091cbb6" y="100.582237"/>
     <use style="stroke:#000000;" x="197.023294" xlink:href="#m53c091cbb6" y="101.862276"/>
     <use style="stroke:#000000;" x="195.505994" xlink:href="#m53c091cbb6" y="103.257166"/>
     <use style="stroke:#000000;" x="193.609517" xlink:href="#m53c091cbb6" y="104.863898"/>
     <use style="stroke:#000000;" x="191.339403" xlink:href="#m53c091cbb6" y="106.69212"/>
     <use style="stroke:#000000;" x="189.493807" xlink:href="#m53c091cbb6" y="108.369282"/>
     <use style="stroke:#000000;" x="187.673519" xlink:href="#m53c091cbb6" y="110.07958"/>
     <use style="stroke:#000000;" x="185.486373" xlink:href="#m53c091cbb6" y="112.020288"/>
     <use style="stroke:#000000;" x="183.524544" xlink:href="#m53c091cbb6" y="113.899611"/>
     <use style="stroke:#000000;" x="181.396853" xlink:href="#m53c091cbb6" y="115.916394"/>
     <use style="stroke:#000000;" x="178.913129" xlink:href="#m53c091cbb6" y="118.178726"/>
     <use style="stroke:#000000;" x="73.832727" xlink:href="#m53c091cbb6" y="176.561241"/>
     <use style="stroke:#000000;" x="75.581405" xlink:href="#m53c091cbb6" y="177.728187"/>
     <use style="stroke:#000000;" x="76.574464" xlink:href="#m53c091cbb6" y="179.307824"/>
     <use style="stroke:#000000;" x="78.15079" xlink:href="#m53c091cbb6" y="180.549373"/>
     <use style="stroke:#000000;" x="79.358325" xlink:href="#m53c091cbb6" y="181.99618"/>
     <use style="stroke:#000000;" x="81.140689" xlink:href="#m53c091cbb6" y="183.092238"/>
     <use style="stroke:#000000;" x="82.182999" xlink:href="#m53c091cbb6" y="184.62576"/>
     <use style="stroke:#000000;" x="83.981049" xlink:href="#m53c091cbb6" y="185.68607"/>
     <use style="stroke:#000000;" x="85.04717" xlink:href="#m53c091cbb6" y="187.196037"/>
     <use style="stroke:#000000;" x="86.676893" xlink:href="#m53c091cbb6" y="188.339599"/>
     <use style="stroke:#000000;" x="87.76738" xlink:href="#m53c091cbb6" y="189.827201"/>
     <use style="stroke:#000000;" x="89.414584" xlink:href="#m53c091cbb6" y="190.939173"/>
     <use style="stroke:#000000;" x="90.349058" xlink:href="#m53c091cbb6" y="192.527746"/>
     <use style="stroke:#000000;" x="92.192956" xlink:href="#m53c091cbb6" y="193.484222"/>
     <use style="stroke:#000000;" x="93.153102" xlink:href="#m53c091cbb6" y="195.052706"/>
     <use style="stroke:#000000;" x="94.65804" xlink:href="#m53c091cbb6" y="196.230383"/>
     <use style="stroke:#000000;" x="95.645776" xlink:href="#m53c091cbb6" y="197.781318"/>
     <use style="stroke:#000000;" x="97.345011" xlink:href="#m53c091cbb6" y="198.801531"/>
     <use style="stroke:#000000;" x="98.531564" xlink:href="#m53c091cbb6" y="200.200633"/>
     <use style="stroke:#000000;" x="99.902539" xlink:href="#m53c091cbb6" y="201.456042"/>
     <use style="stroke:#000000;" x="101.113472" xlink:href="#m53c091cbb6" y="202.833922"/>
     <use style="stroke:#000000;" x="102.506136" xlink:href="#m53c091cbb6" y="204.065095"/>
     <use style="stroke:#000000;" x="103.573224" xlink:href="#m53c091cbb6" y="205.55942"/>
     <use style="stroke:#000000;" x="105.321433" xlink:href="#m53c091cbb6" y="206.488552"/>
     <use style="stroke:#000000;" x="106.413332" xlink:href="#m53c091cbb6" y="207.962285"/>
     <use style="stroke:#000000;" x="107.520084" xlink:href="#m53c091cbb6" y="209.428304"/>
     <use style="stroke:#000000;" x="107.665957" xlink:href="#m53c091cbb6" y="211.747495"/>
     <use style="stroke:#000000;" x="108.648929" xlink:href="#m53c091cbb6" y="213.350552"/>
     <use style="stroke:#000000;" x="109.329448" xlink:href="#m53c091cbb6" y="215.240416"/>
     <use style="stroke:#000000;" x="111.301478" xlink:href="#m53c091cbb6" y="215.949991"/>
     <use style="stroke:#000000;" x="112.016746" xlink:href="#m53c091cbb6" y="217.828328"/>
     <use style="stroke:#000000;" x="113.534033" xlink:href="#m53c091cbb6" y="218.955462"/>
     <use style="stroke:#000000;" x="114.75136" xlink:href="#m53c091cbb6" y="220.371462"/>
     <use style="stroke:#000000;" x="116.595306" xlink:href="#m53c091cbb6" y="221.168104"/>
     <use style="stroke:#000000;" x="118.290649" xlink:href="#m53c091cbb6" y="222.099601"/>
     <use style="stroke:#000000;" x="120.292095" xlink:href="#m53c091cbb6" y="222.704299"/>
     <use style="stroke:#000000;" x="150.560949" xlink:href="#m53c091cbb6" y="193.577301"/>
     <use style="stroke:#000000;" x="165.25162" xlink:href="#m53c091cbb6" y="180.038641"/>
     <use style="stroke:#000000;" x="175.014814" xlink:href="#m53c091cbb6" y="171.349483"/>
     <use style="stroke:#000000;" x="184.176116" xlink:href="#m53c091cbb6" y="162.988117"/>
     <use style="stroke:#000000;" x="192.460954" xlink:href="#m53c091cbb6" y="155.289724"/>
     <use style="stroke:#000000;" x="199.041207" xlink:href="#m53c091cbb6" y="149.248133"/>
     <use style="stroke:#000000;" x="204.94419" xlink:href="#m53c091cbb6" y="143.758892"/>
     <use style="stroke:#000000;" x="209.494631" xlink:href="#m53c091cbb6" y="139.660644"/>
     <use style="stroke:#000000;" x="214.23822" xlink:href="#m53c091cbb6" y="135.161523"/>
     <use style="stroke:#000000;" x="217.946635" xlink:href="#m53c091cbb6" y="131.758213"/>
     <use style="stroke:#000000;" x="221.186572" xlink:href="#m53c091cbb6" y="128.80298"/>
     <use style="stroke:#000000;" x="224.103531" xlink:href="#m53c091cbb6" y="126.137419"/>
     <use style="stroke:#000000;" x="226.836944" xlink:href="#m53c091cbb6" y="123.598556"/>
     <use style="stroke:#000000;" x="229.132723" xlink:href="#m53c091cbb6" y="121.532887"/>
     <use style="stroke:#000000;" x="231.132122" xlink:href="#m53c091cbb6" y="119.778226"/>
     <use style="stroke:#000000;" x="233.096133" xlink:href="#m53c091cbb6" y="117.994561"/>
     <use style="stroke:#000000;" x="235.894707" xlink:href="#m53c091cbb6" y="114.961243"/>
     <use style="stroke:#000000;" x="236.916473" xlink:href="#m53c091cbb6" y="114.342026"/>
     <use style="stroke:#000000;" x="237.803281" xlink:href="#m53c091cbb6" y="113.885831"/>
     <use style="stroke:#000000;" x="239.873973" xlink:href="#m53c091cbb6" y="111.643726"/>
     <use style="stroke:#000000;" x="241.311816" xlink:href="#m53c091cbb6" y="110.263102"/>
     <use style="stroke:#000000;" x="242.141152" xlink:href="#m53c091cbb6" y="109.759006"/>
     <use style="stroke:#000000;" x="243.417235" xlink:href="#m53c091cbb6" y="108.522823"/>
     <use style="stroke:#000000;" x="244.894226" xlink:href="#m53c091cbb6" y="106.906037"/>
     <use style="stroke:#000000;" x="245.783632" xlink:href="#m53c091cbb6" y="106.178992"/>
     <use style="stroke:#000000;" x="246.876851" xlink:href="#m53c091cbb6" y="105.0738"/>
     <use style="stroke:#000000;" x="247.51681" xlink:href="#m53c091cbb6" y="104.689478"/>
     <use style="stroke:#000000;" x="248.466376" xlink:href="#m53c091cbb6" y="103.742484"/>
     <use style="stroke:#000000;" x="249.501303" xlink:href="#m53c091cbb6" y="102.596684"/>
     <use style="stroke:#000000;" x="250.102937" xlink:href="#m53c091cbb6" y="102.18296"/>
     <use style="stroke:#000000;" x="250.594616" xlink:href="#m53c091cbb6" y="101.949243"/>
     <use style="stroke:#000000;" x="251.576702" xlink:href="#m53c091cbb6" y="100.76828"/>
     <use style="stroke:#000000;" x="251.950865" xlink:href="#m53c091cbb6" y="100.708289"/>
     <use style="stroke:#000000;" x="252.801321" xlink:href="#m53c091cbb6" y="99.694822"/>
     <use style="stroke:#000000;" x="253.256002" xlink:href="#m53c091cbb6" y="99.432476"/>
     <use style="stroke:#000000;" x="253.612519" xlink:href="#m53c091cbb6" y="99.356319"/>
     <use style="stroke:#000000;" x="254.509163" xlink:href="#m53c091cbb6" y="98.123118"/>
     <use style="stroke:#000000;" x="255.027332" xlink:href="#m53c091cbb6" y="97.64924"/>
     <use style="stroke:#000000;" x="255.535763" xlink:href="#m53c091cbb6" y="97.168925"/>
     <use style="stroke:#000000;" x="192.474137" xlink:href="#m53c091cbb6" y="241.89833"/>
     <use style="stroke:#000000;" x="256.439806" xlink:href="#m53c091cbb6" y="96.384584"/>
     <use style="stroke:#000000;" x="256.83887" xlink:href="#m53c091cbb6" y="96.082171"/>
     <use style="stroke:#000000;" x="196.51464" xlink:href="#m53c091cbb6" y="245.462567"/>
     <use style="stroke:#000000;" x="257.851282" xlink:href="#m53c091cbb6" y="94.872309"/>
     <use style="stroke:#000000;" x="258.453599" xlink:href="#m53c091cbb6" y="93.961214"/>
     <use style="stroke:#000000;" x="258.741481" xlink:href="#m53c091cbb6" y="93.835464"/>
     <use style="stroke:#000000;" x="258.809197" xlink:href="#m53c091cbb6" y="94.303593"/>
     <use style="stroke:#000000;" x="259.167104" xlink:href="#m53c091cbb6" y="93.974156"/>
     <use style="stroke:#000000;" x="204.757958" xlink:href="#m53c091cbb6" y="253.134224"/>
     <use style="stroke:#000000;" x="206.040274" xlink:href="#m53c091cbb6" y="254.848263"/>
     <use style="stroke:#000000;" x="260.200215" xlink:href="#m53c091cbb6" y="92.96163"/>
     <use style="stroke:#000000;" x="260.530891" xlink:href="#m53c091cbb6" y="92.616339"/>
     <use style="stroke:#000000;" x="210.5386" xlink:href="#m53c091cbb6" y="258.32668"/>
     <use style="stroke:#000000;" x="211.913225" xlink:href="#m53c091cbb6" y="260.005299"/>
     <use style="stroke:#000000;" x="213.256961" xlink:href="#m53c091cbb6" y="261.878645"/>
     <use style="stroke:#000000;" x="214.742396" xlink:href="#m53c091cbb6" y="263.336668"/>
     <use style="stroke:#000000;" x="261.918217" xlink:href="#m53c091cbb6" y="91.447971"/>
     <use style="stroke:#000000;" x="262.160477" xlink:href="#m53c091cbb6" y="91.287449"/>
     <use style="stroke:#000000;" x="219.235119" xlink:href="#m53c091cbb6" y="268.059345"/>
     <use style="stroke:#000000;" x="220.959425" xlink:href="#m53c091cbb6" y="268.860051"/>
     <use style="stroke:#000000;" x="222.556156" xlink:href="#m53c091cbb6" y="270.264719"/>
     <use style="stroke:#000000;" x="224.308263" xlink:href="#m53c091cbb6" y="271.039442"/>
     <use style="stroke:#000000;" x="263.363022" xlink:href="#m53c091cbb6" y="90.242937"/>
     <use style="stroke:#000000;" x="263.623248" xlink:href="#m53c091cbb6" y="89.861347"/>
     <use style="stroke:#000000;" x="263.914737" xlink:href="#m53c091cbb6" y="89.269749"/>
     <use style="stroke:#000000;" x="264.121628" xlink:href="#m53c091cbb6" y="89.089895"/>
     <use style="stroke:#000000;" x="232.360046" xlink:href="#m53c091cbb6" y="279.899548"/>
     <use style="stroke:#000000;" x="234.124958" xlink:href="#m53c091cbb6" y="281.221079"/>
     <use style="stroke:#000000;" x="244.390327" xlink:href="#m53c091cbb6" y="225.436423"/>
     <use style="stroke:#000000;" x="245.845909" xlink:href="#m53c091cbb6" y="225.411538"/>
     <use style="stroke:#000000;" x="264.885174" xlink:href="#m53c091cbb6" y="89.832362"/>
     <use style="stroke:#000000;" x="241.199314" xlink:href="#m53c091cbb6" y="288.044051"/>
     <use style="stroke:#000000;" x="265.445209" xlink:href="#m53c091cbb6" y="87.986824"/>
     <use style="stroke:#000000;" x="265.624824" xlink:href="#m53c091cbb6" y="87.792462"/>
     <use style="stroke:#000000;" x="246.712837" xlink:href="#m53c091cbb6" y="294.067459"/>
     <use style="stroke:#000000;" x="248.667501" xlink:href="#m53c091cbb6" y="295.488"/>
     <use style="stroke:#000000;" x="250.863939" xlink:href="#m53c091cbb6" y="293.954514"/>
     <use style="stroke:#000000;" x="253.071385" xlink:href="#m53c091cbb6" y="291.771917"/>
     <use style="stroke:#000000;" x="255.237311" xlink:href="#m53c091cbb6" y="289.570027"/>
     <use style="stroke:#000000;" x="257.342135" xlink:href="#m53c091cbb6" y="287.769797"/>
     <use style="stroke:#000000;" x="266.6759" xlink:href="#m53c091cbb6" y="89.122271"/>
     <use style="stroke:#000000;" x="261.437583" xlink:href="#m53c091cbb6" y="284.536562"/>
     <use style="stroke:#000000;" x="267.063841" xlink:href="#m53c091cbb6" y="86.395645"/>
     <use style="stroke:#000000;" x="267.207411" xlink:href="#m53c091cbb6" y="86.397423"/>
     <use style="stroke:#000000;" x="267.350993" xlink:href="#m53c091cbb6" y="87.450096"/>
     <use style="stroke:#000000;" x="267.492634" xlink:href="#m53c091cbb6" y="86.187015"/>
     <use style="stroke:#000000;" x="271.107255" xlink:href="#m53c091cbb6" y="274.478833"/>
     <use style="stroke:#000000;" x="272.950107" xlink:href="#m53c091cbb6" y="273.177995"/>
     <use style="stroke:#000000;" x="274.761498" xlink:href="#m53c091cbb6" y="271.652036"/>
     <use style="stroke:#000000;" x="276.535478" xlink:href="#m53c091cbb6" y="269.901466"/>
     <use style="stroke:#000000;" x="278.312653" xlink:href="#m53c091cbb6" y="268.767399"/>
     <use style="stroke:#000000;" x="280.04247" xlink:href="#m53c091cbb6" y="267.199172"/>
     <use style="stroke:#000000;" x="281.744206" xlink:href="#m53c091cbb6" y="265.61756"/>
     <use style="stroke:#000000;" x="283.400304" xlink:href="#m53c091cbb6" y="263.81314"/>
     <use style="stroke:#000000;" x="268.649356" xlink:href="#m53c091cbb6" y="84.871458"/>
     <use style="stroke:#000000;" x="268.778811" xlink:href="#m53c091cbb6" y="84.860201"/>
     <use style="stroke:#000000;" x="268.908158" xlink:href="#m53c091cbb6" y="84.847875"/>
     <use style="stroke:#000000;" x="269.012216" xlink:href="#m53c091cbb6" y="84.625418"/>
     <use style="stroke:#000000;" x="291.440144" xlink:href="#m53c091cbb6" y="256.492682"/>
     <use style="stroke:#000000;" x="283.835322" xlink:href="#m53c091cbb6" y="189.321006"/>
     <use style="stroke:#000000;" x="294.458194" xlink:href="#m53c091cbb6" y="253.357758"/>
     <use style="stroke:#000000;" x="296.041723" xlink:href="#m53c091cbb6" y="252.502632"/>
     <use style="stroke:#000000;" x="297.541989" xlink:href="#m53c091cbb6" y="251.219648"/>
     <use style="stroke:#000000;" x="298.910699" xlink:href="#m53c091cbb6" y="249.303209"/>
     <use style="stroke:#000000;" x="300.400825" xlink:href="#m53c091cbb6" y="248.206904"/>
     <use style="stroke:#000000;" x="301.751592" xlink:href="#m53c091cbb6" y="246.478964"/>
     <use style="stroke:#000000;" x="303.157879" xlink:href="#m53c091cbb6" y="245.155432"/>
     <use style="stroke:#000000;" x="304.719707" xlink:href="#m53c091cbb6" y="244.646896"/>
     <use style="stroke:#000000;" x="270.263351" xlink:href="#m53c091cbb6" y="83.793761"/>
     <use style="stroke:#000000;" x="307.390189" xlink:href="#m53c091cbb6" y="241.743525"/>
     <use style="stroke:#000000;" x="270.452016" xlink:href="#m53c091cbb6" y="83.538662"/>
     <use style="stroke:#000000;" x="270.517208" xlink:href="#m53c091cbb6" y="83.307967"/>
     <use style="stroke:#000000;" x="311.351102" xlink:href="#m53c091cbb6" y="237.83476"/>
     <use style="stroke:#000000;" x="270.691221" xlink:href="#m53c091cbb6" y="83.050058"/>
     <use style="stroke:#000000;" x="314.021482" xlink:href="#m53c091cbb6" y="235.659888"/>
     <use style="stroke:#000000;" x="314.945475" xlink:href="#m53c091cbb6" y="233.240557"/>
     <use style="stroke:#000000;" x="328.208281" xlink:href="#m53c091cbb6" y="271.676155"/>
     <use style="stroke:#000000;" x="313.386677" xlink:href="#m53c091cbb6" y="217.903675"/>
     <use style="stroke:#000000;" x="318.901601" xlink:href="#m53c091cbb6" y="230.396087"/>
     <use style="stroke:#000000;" x="332.873899" xlink:href="#m53c091cbb6" y="267.490929"/>
     <use style="stroke:#000000;" x="334.341343" xlink:href="#m53c091cbb6" y="265.94174"/>
     <use style="stroke:#000000;" x="322.662791" xlink:href="#m53c091cbb6" y="227.26848"/>
     <use style="stroke:#000000;" x="323.813712" xlink:href="#m53c091cbb6" y="226.009928"/>
     <use style="stroke:#000000;" x="338.824783" xlink:href="#m53c091cbb6" y="261.83519"/>
     <use style="stroke:#000000;" x="326.51486" xlink:href="#m53c091cbb6" y="224.658294"/>
     <use style="stroke:#000000;" x="327.308186" xlink:href="#m53c091cbb6" y="222.587113"/>
     <use style="stroke:#000000;" x="272.052168" xlink:href="#m53c091cbb6" y="82.417209"/>
     <use style="stroke:#000000;" x="329.853302" xlink:href="#m53c091cbb6" y="220.986413"/>
     <use style="stroke:#000000;" x="272.098608" xlink:href="#m53c091cbb6" y="81.94761"/>
     <use style="stroke:#000000;" x="272.286058" xlink:href="#m53c091cbb6" y="82.102378"/>
     <use style="stroke:#000000;" x="349.015084" xlink:href="#m53c091cbb6" y="252.894787"/>
     <use style="stroke:#000000;" x="272.49324" xlink:href="#m53c091cbb6" y="82.019152"/>
     <use style="stroke:#000000;" x="335.448866" xlink:href="#m53c091cbb6" y="215.572297"/>
     <use style="stroke:#000000;" x="353.1012" xlink:href="#m53c091cbb6" y="248.894658"/>
     <use style="stroke:#000000;" x="337.731979" xlink:href="#m53c091cbb6" y="213.662731"/>
     <use style="stroke:#000000;" x="355.797684" xlink:href="#m53c091cbb6" y="246.311765"/>
     <use style="stroke:#000000;" x="339.77058" xlink:href="#m53c091cbb6" y="211.34383"/>
     <use style="stroke:#000000;" x="358.325988" xlink:href="#m53c091cbb6" y="243.50608"/>
     <use style="stroke:#000000;" x="359.71295" xlink:href="#m53c091cbb6" y="242.373235"/>
     <use style="stroke:#000000;" x="342.913904" xlink:href="#m53c091cbb6" y="208.195166"/>
     <use style="stroke:#000000;" x="362.34057" xlink:href="#m53c091cbb6" y="239.892713"/>
     <use style="stroke:#000000;" x="345.11742" xlink:href="#m53c091cbb6" y="206.371485"/>
     <use style="stroke:#000000;" x="346.040959" xlink:href="#m53c091cbb6" y="205.171997"/>
     <use style="stroke:#000000;" x="366.327591" xlink:href="#m53c091cbb6" y="236.382815"/>
     <use style="stroke:#000000;" x="348.284182" xlink:href="#m53c091cbb6" y="203.487429"/>
     <use style="stroke:#000000;" x="368.80141" xlink:href="#m53c091cbb6" y="233.816386"/>
     <use style="stroke:#000000;" x="370.300506" xlink:href="#m53c091cbb6" y="232.972363"/>
     <use style="stroke:#000000;" x="351.228897" xlink:href="#m53c091cbb6" y="200.360587"/>
     <use style="stroke:#000000;" x="273.831331" xlink:href="#m53c091cbb6" y="80.641593"/>
     <use style="stroke:#000000;" x="353.246547" xlink:href="#m53c091cbb6" y="198.42313"/>
     <use style="stroke:#000000;" x="273.890241" xlink:href="#m53c091cbb6" y="80.356598"/>
     <use style="stroke:#000000;" x="273.855144" xlink:href="#m53c091cbb6" y="80.126769"/>
     <use style="stroke:#000000;" x="356.497858" xlink:href="#m53c091cbb6" y="195.90266"/>
     <use style="stroke:#000000;" x="274.025653" xlink:href="#m53c091cbb6" y="80.017929"/>
     <use style="stroke:#000000;" x="358.535827" xlink:href="#m53c091cbb6" y="194.066523"/>
     <use style="stroke:#000000;" x="381.489338" xlink:href="#m53c091cbb6" y="222.258976"/>
     <use style="stroke:#000000;" x="352.561186" xlink:href="#m53c091cbb6" y="181.817237"/>
     <use style="stroke:#000000;" x="384.000109" xlink:href="#m53c091cbb6" y="220.012498"/>
     <use style="stroke:#000000;" x="385.237528" xlink:href="#m53c091cbb6" y="218.875439"/>
     <use style="stroke:#000000;" x="363.181912" xlink:href="#m53c091cbb6" y="189.016636"/>
     <use style="stroke:#000000;" x="387.539174" xlink:href="#m53c091cbb6" y="216.408429"/>
     <use style="stroke:#000000;" x="365.346935" xlink:href="#m53c091cbb6" y="187.415878"/>
     <use style="stroke:#000000;" x="390.065715" xlink:href="#m53c091cbb6" y="214.237687"/>
     <use style="stroke:#000000;" x="367.199252" xlink:href="#m53c091cbb6" y="185.454882"/>
     <use style="stroke:#000000;" x="368.109537" xlink:href="#m53c091cbb6" y="184.464744"/>
     <use style="stroke:#000000;" x="393.701718" xlink:href="#m53c091cbb6" y="210.828573"/>
     <use style="stroke:#000000;" x="370.189865" xlink:href="#m53c091cbb6" y="182.783293"/>
     <use style="stroke:#000000;" x="396.117013" xlink:href="#m53c091cbb6" y="208.562831"/>
     <use style="stroke:#000000;" x="397.233424" xlink:href="#m53c091cbb6" y="207.337818"/>
     <use style="stroke:#000000;" x="398.487273" xlink:href="#m53c091cbb6" y="206.26"/>
     <use style="stroke:#000000;" x="275.387817" xlink:href="#m53c091cbb6" y="78.983326"/>
     <use style="stroke:#000000;" x="375.09922" xlink:href="#m53c091cbb6" y="178.278983"/>
     <use style="stroke:#000000;" x="275.382552" xlink:href="#m53c091cbb6" y="78.697986"/>
     <use style="stroke:#000000;" x="275.610667" xlink:href="#m53c091cbb6" y="78.781438"/>
     <use style="stroke:#000000;" x="275.369259" xlink:href="#m53c091cbb6" y="78.41535"/>
    </g>
   </g>
   <g id="line2d_17">
    <defs>
     <path d="M 0 1.5 
C 0.397805 1.5 0.77937 1.341951 1.06066 1.06066 
C 1.341951 0.77937 1.5 0.397805 1.5 0 
C 1.5 -0.397805 1.341951 -0.77937 1.06066 -1.06066 
C 0.77937 -1.341951 0.397805 -1.5 0 -1.5 
C -0.397805 -1.5 -0.77937 -1.341951 -1.06066 -1.06066 
C -1.341951 -0.77937 -1.5 -0.397805 -1.5 0 
C -1.5 0.397805 -1.341951 0.77937 -1.06066 1.06066 
C -0.77937 1.341951 -0.397805 1.5 0 1.5 
z
" id="m54de6a9621" style="stroke:#008000;"/>
    </defs>
    <g clip-path="url(#p4665428299)">
     <use style="fill:#008000;stroke:#008000;" x="241.972182" xlink:href="#m54de6a9621" y="84.323764"/>
    </g>
   </g>
   <g id="line2d_18">
    <defs>
     <path d="M -7.5 0 
L 7.5 0 
M 0 7.5 
L 0 -7.5 
" id="mb6a92adb5f" style="stroke:#0000ff;"/>
    </defs>
    <g clip-path="url(#p4665428299)">
     <use style="fill:#0000ff;stroke:#0000ff;" x="264.206575" xlink:href="#mb6a92adb5f" y="73.802968"/>
    </g>
   </g>
   <g id="line2d_19">
    <defs>
     <path d="M -7.5 0 
L 7.5 0 
M 0 7.5 
L 0 -7.5 
" id="m53d3196178" style="stroke:#ff0000;"/>
    </defs>
    <g clip-path="url(#p4665428299)">
     <use style="fill:#ff0000;stroke:#ff0000;" x="267.350993" xlink:href="#m53d3196178" y="70.827237"/>
    </g>
   </g>
   <g id="patch_3">
    <path d="M 57.6 307.584 
L 57.6 41.472 
" style="fill:none;stroke:#000000;stroke-linecap:square;stroke-linejoin:miter;stroke-width:0.8;"/>
   </g>
   <g id="patch_4">
    <path d="M 414.72 307.584 
L 414.72 41.472 
" style="fill:none;stroke:#000000;stroke-linecap:square;stroke-linejoin:miter;stroke-width:0.8;"/>
   </g>
   <g id="patch_5">
    <path d="M 57.6 307.584 
L 414.72 307.584 
" style="fill:none;stroke:#000000;stroke-linecap:square;stroke-linejoin:miter;stroke-width:0.8;"/>
   </g>
   <g id="patch_6">
    <path d="M 57.6 41.472 
L 414.72 41.472 
" style="fill:none;stroke:#000000;stroke-linecap:square;stroke-linejoin:miter;stroke-width:0.8;"/>
   </g>
   <g id="text_18">
    <!-- O -->
    <defs>
     <path d="M 39.40625 66.21875 
Q 28.65625 66.21875 22.328125 58.203125 
Q 16.015625 50.203125 16.015625 36.375 
Q 16.015625 22.609375 22.328125 14.59375 
Q 28.65625 6.59375 39.40625 6.59375 
Q 50.140625 6.59375 56.421875 14.59375 
Q 62.703125 22.609375 62.703125 36.375 
Q 62.703125 50.203125 56.421875 58.203125 
Q 50.140625 66.21875 39.40625 66.21875 
z
M 39.40625 74.21875 
Q 54.734375 74.21875 63.90625 63.9375 
Q 73.09375 53.65625 73.09375 36.375 
Q 73.09375 19.140625 63.90625 8.859375 
Q 54.734375 -1.421875 39.40625 -1.421875 
Q 24.03125 -1.421875 14.8125 8.828125 
Q 5.609375 19.09375 5.609375 36.375 
Q 5.609375 53.65625 14.8125 63.9375 
Q 24.03125 74.21875 39.40625 74.21875 
z
" id="DejaVuSans-79"/>
    </defs>
    <g transform="translate(237.525304 80.115446)scale(0.1 -0.1)">
     <use xlink:href="#DejaVuSans-79"/>
    </g>
   </g>
   <g id="text_19">
    <!-- Data in the global frame of reference -->
    <defs>
     <path d="M 19.671875 64.796875 
L 19.671875 8.109375 
L 31.59375 8.109375 
Q 46.6875 8.109375 53.6875 14.9375 
Q 60.6875 21.78125 60.6875 36.53125 
Q 60.6875 51.171875 53.6875 57.984375 
Q 46.6875 64.796875 31.59375 64.796875 
z
M 9.8125 72.90625 
L 30.078125 72.90625 
Q 51.265625 72.90625 61.171875 64.09375 
Q 71.09375 55.28125 71.09375 36.53125 
Q 71.09375 17.671875 61.125 8.828125 
Q 51.171875 0 30.078125 0 
L 9.8125 0 
z
" id="DejaVuSans-68"/>
     <path d="M 54.890625 33.015625 
L 54.890625 0 
L 45.90625 0 
L 45.90625 32.71875 
Q 45.90625 40.484375 42.875 44.328125 
Q 39.84375 48.1875 33.796875 48.1875 
Q 26.515625 48.1875 22.3125 43.546875 
Q 18.109375 38.921875 18.109375 30.90625 
L 18.109375 0 
L 9.078125 0 
L 9.078125 75.984375 
L 18.109375 75.984375 
L 18.109375 46.1875 
Q 21.34375 51.125 25.703125 53.5625 
Q 30.078125 56 35.796875 56 
Q 45.21875 56 50.046875 50.171875 
Q 54.890625 44.34375 54.890625 33.015625 
z
" id="DejaVuSans-104"/>
     <path d="M 45.40625 27.984375 
Q 45.40625 37.75 41.375 43.109375 
Q 37.359375 48.484375 30.078125 48.484375 
Q 22.859375 48.484375 18.828125 43.109375 
Q 14.796875 37.75 14.796875 27.984375 
Q 14.796875 18.265625 18.828125 12.890625 
Q 22.859375 7.515625 30.078125 7.515625 
Q 37.359375 7.515625 41.375 12.890625 
Q 45.40625 18.265625 45.40625 27.984375 
z
M 54.390625 6.78125 
Q 54.390625 -7.171875 48.1875 -13.984375 
Q 42 -20.796875 29.203125 -20.796875 
Q 24.46875 -20.796875 20.265625 -20.09375 
Q 16.0625 -19.390625 12.109375 -17.921875 
L 12.109375 -9.1875 
Q 16.0625 -11.328125 19.921875 -12.34375 
Q 23.78125 -13.375 27.78125 -13.375 
Q 36.625 -13.375 41.015625 -8.765625 
Q 45.40625 -4.15625 45.40625 5.171875 
L 45.40625 9.625 
Q 42.625 4.78125 38.28125 2.390625 
Q 33.9375 0 27.875 0 
Q 17.828125 0 11.671875 7.65625 
Q 5.515625 15.328125 5.515625 27.984375 
Q 5.515625 40.671875 11.671875 48.328125 
Q 17.828125 56 27.875 56 
Q 33.9375 56 38.28125 53.609375 
Q 42.625 51.21875 45.40625 46.390625 
L 45.40625 54.6875 
L 54.390625 54.6875 
z
" id="DejaVuSans-103"/>
     <path d="M 9.421875 75.984375 
L 18.40625 75.984375 
L 18.40625 0 
L 9.421875 0 
z
" id="DejaVuSans-108"/>
     <path d="M 30.609375 48.390625 
Q 23.390625 48.390625 19.1875 42.75 
Q 14.984375 37.109375 14.984375 27.296875 
Q 14.984375 17.484375 19.15625 11.84375 
Q 23.34375 6.203125 30.609375 6.203125 
Q 37.796875 6.203125 41.984375 11.859375 
Q 46.1875 17.53125 46.1875 27.296875 
Q 46.1875 37.015625 41.984375 42.703125 
Q 37.796875 48.390625 30.609375 48.390625 
z
M 30.609375 56 
Q 42.328125 56 49.015625 48.375 
Q 55.71875 40.765625 55.71875 27.296875 
Q 55.71875 13.875 49.015625 6.21875 
Q 42.328125 -1.421875 30.609375 -1.421875 
Q 18.84375 -1.421875 12.171875 6.21875 
Q 5.515625 13.875 5.515625 27.296875 
Q 5.515625 40.765625 12.171875 48.375 
Q 18.84375 56 30.609375 56 
z
" id="DejaVuSans-111"/>
     <path d="M 48.6875 27.296875 
Q 48.6875 37.203125 44.609375 42.84375 
Q 40.53125 48.484375 33.40625 48.484375 
Q 26.265625 48.484375 22.1875 42.84375 
Q 18.109375 37.203125 18.109375 27.296875 
Q 18.109375 17.390625 22.1875 11.75 
Q 26.265625 6.109375 33.40625 6.109375 
Q 40.53125 6.109375 44.609375 11.75 
Q 48.6875 17.390625 48.6875 27.296875 
z
M 18.109375 46.390625 
Q 20.953125 51.265625 25.265625 53.625 
Q 29.59375 56 35.59375 56 
Q 45.5625 56 51.78125 48.09375 
Q 58.015625 40.1875 58.015625 27.296875 
Q 58.015625 14.40625 51.78125 6.484375 
Q 45.5625 -1.421875 35.59375 -1.421875 
Q 29.59375 -1.421875 25.265625 0.953125 
Q 20.953125 3.328125 18.109375 8.203125 
L 18.109375 0 
L 9.078125 0 
L 9.078125 75.984375 
L 18.109375 75.984375 
z
" id="DejaVuSans-98"/>
     <path d="M 37.109375 75.984375 
L 37.109375 68.5 
L 28.515625 68.5 
Q 23.6875 68.5 21.796875 66.546875 
Q 19.921875 64.59375 19.921875 59.515625 
L 19.921875 54.6875 
L 34.71875 54.6875 
L 34.71875 47.703125 
L 19.921875 47.703125 
L 19.921875 0 
L 10.890625 0 
L 10.890625 47.703125 
L 2.296875 47.703125 
L 2.296875 54.6875 
L 10.890625 54.6875 
L 10.890625 58.5 
Q 10.890625 67.625 15.140625 71.796875 
Q 19.390625 75.984375 28.609375 75.984375 
z
" id="DejaVuSans-102"/>
     <path d="M 41.109375 46.296875 
Q 39.59375 47.171875 37.8125 47.578125 
Q 36.03125 48 33.890625 48 
Q 26.265625 48 22.1875 43.046875 
Q 18.109375 38.09375 18.109375 28.8125 
L 18.109375 0 
L 9.078125 0 
L 9.078125 54.6875 
L 18.109375 54.6875 
L 18.109375 46.1875 
Q 20.953125 51.171875 25.484375 53.578125 
Q 30.03125 56 36.53125 56 
Q 37.453125 56 38.578125 55.875 
Q 39.703125 55.765625 41.0625 55.515625 
z
" id="DejaVuSans-114"/>
    </defs>
    <g transform="translate(124.290937 35.472)scale(0.12 -0.12)">
     <use xlink:href="#DejaVuSans-68"/>
     <use x="77.001953" xlink:href="#DejaVuSans-97"/>
     <use x="138.28125" xlink:href="#DejaVuSans-116"/>
     <use x="177.490234" xlink:href="#DejaVuSans-97"/>
     <use x="238.769531" xlink:href="#DejaVuSans-32"/>
     <use x="270.556641" xlink:href="#DejaVuSans-105"/>
     <use x="298.339844" xlink:href="#DejaVuSans-110"/>
     <use x="361.71875" xlink:href="#DejaVuSans-32"/>
     <use x="393.505859" xlink:href="#DejaVuSans-116"/>
     <use x="432.714844" xlink:href="#DejaVuSans-104"/>
     <use x="496.09375" xlink:href="#DejaVuSans-101"/>
     <use x="557.617188" xlink:href="#DejaVuSans-32"/>
     <use x="589.404297" xlink:href="#DejaVuSans-103"/>
     <use x="652.880859" xlink:href="#DejaVuSans-108"/>
     <use x="680.664062" xlink:href="#DejaVuSans-111"/>
     <use x="741.845703" xlink:href="#DejaVuSans-98"/>
     <use x="805.322266" xlink:href="#DejaVuSans-97"/>
     <use x="866.601562" xlink:href="#DejaVuSans-108"/>
     <use x="894.384766" xlink:href="#DejaVuSans-32"/>
     <use x="926.171875" xlink:href="#DejaVuSans-102"/>
     <use x="961.376953" xlink:href="#DejaVuSans-114"/>
     <use x="1002.490234" xlink:href="#DejaVuSans-97"/>
     <use x="1063.769531" xlink:href="#DejaVuSans-109"/>
     <use x="1161.181641" xlink:href="#DejaVuSans-101"/>
     <use x="1222.705078" xlink:href="#DejaVuSans-32"/>
     <use x="1254.492188" xlink:href="#DejaVuSans-111"/>
     <use x="1315.673828" xlink:href="#DejaVuSans-102"/>
     <use x="1350.878906" xlink:href="#DejaVuSans-32"/>
     <use x="1382.666016" xlink:href="#DejaVuSans-114"/>
     <use x="1423.748047" xlink:href="#DejaVuSans-101"/>
     <use x="1485.271484" xlink:href="#DejaVuSans-102"/>
     <use x="1520.476562" xlink:href="#DejaVuSans-101"/>
     <use x="1582" xlink:href="#DejaVuSans-114"/>
     <use x="1623.082031" xlink:href="#DejaVuSans-101"/>
     <use x="1684.605469" xlink:href="#DejaVuSans-110"/>
     <use x="1747.984375" xlink:href="#DejaVuSans-99"/>
     <use x="1802.964844" xlink:href="#DejaVuSans-101"/>
    </g>
   </g>
  </g>
 </g>
 <defs>
  <clipPath id="p4665428299">
   <rect height="266.112" width="357.12" x="57.6" y="41.472"/>
  </clipPath>
 </defs>
</svg>
